<?xml version="1.0" standalone="no"?>
<!DOCTYPE svg PUBLIC "-//W3C//DTD SVG 20010904//EN"
 "http://www.w3.org/TR/2001/REC-SVG-20010904/DTD/svg10.dtd">
<svg version="1.0" xmlns="http://www.w3.org/2000/svg"
 width="1808.000000pt" height="592.000000pt" viewBox="0 0 1808.000000 592.000000"
 preserveAspectRatio="xMidYMid meet">

<g transform="translate(0.000000,592.000000) scale(0.100000,-0.100000)"
fill="#000000" stroke="none">
<path d="M0 2960 l0 -2960 4112 0 c2261 0 4109 2 4106 5 -2 2 -137 45 -299 95
-346 107 -633 198 -668 212 l-26 11 30 8 c66 20 604 159 614 159 6 0 11 -4 11
-9 0 -5 -21 -14 -47 -20 -300 -73 -532 -136 -521 -141 7 -4 159 -53 338 -110
179 -56 401 -126 493 -156 l168 -54 272 0 c271 0 272 0 286 22 14 22 171 220
228 286 20 24 33 31 46 27 9 -4 17 -10 17 -14 0 -3 -56 -77 -125 -164 l-125
-157 1352 0 1353 0 85 26 c98 29 511 156 810 249 113 35 331 102 485 150 154
47 372 115 485 150 113 34 304 93 425 130 121 37 315 96 430 132 116 35 218
66 227 69 29 9 21 -24 -9 -40 -36 -18 -409 -137 -1168 -373 -476 -148 -612
-189 -835 -254 -96 -27 -230 -68 -297 -90 -123 -39 -162 -48 -133 -29 9 6 10
10 3 10 -20 0 -43 -12 -38 -20 2 -4 -6 -5 -18 -3 -34 6 -327 -85 -327 -102 0
-3 1427 -5 3170 -5 l3170 0 0 89 0 90 -27 4 -28 4 28 2 27 1 0 862 0 862 -65
-64 c-35 -35 -67 -61 -70 -58 -3 3 26 39 65 81 l70 75 0 1986 0 1986 -3231 0
c-2581 0 -3229 -3 -3223 -12 4 -7 14 -21 22 -31 19 -22 8 -35 -14 -16 -23 19
-50 21 -64 4 -14 -17 -148 -20 -185 -6 -11 5 -28 4 -38 -1 -27 -14 -30 -5 -7
25 11 14 20 28 20 31 0 3 -56 6 -124 6 l-123 0 -49 -42 -49 -42 40 42 39 42
-4062 0 -4061 0 -48 -51 c-53 -57 -163 -154 -163 -145 0 4 38 49 86 101 l85
95 -1465 0 -1466 0 0 -2960z m9260 2910 c0 -21 -33 -29 -45 -10 -9 15 4 30 26
30 12 0 19 -7 19 -20z m2018 -23 c2 -12 -3 -17 -17 -17 -12 0 -21 6 -21 13 0
31 32 34 38 4z m3772 -27 c0 -5 -4 -10 -10 -10 -5 0 -10 5 -10 10 0 6 5 10 10
10 6 0 10 -4 10 -10z m-6066 -31 c-3 -5 -10 -7 -15 -3 -5 3 -7 10 -3 15 3 5
10 7 15 3 5 -3 7 -10 3 -15z m1336 -14 c0 -8 -4 -15 -10 -15 -5 0 -10 7 -10
15 0 8 5 15 10 15 6 0 10 -7 10 -15z m2380 -16 c0 -28 -18 -59 -34 -59 -20 0
-27 26 -16 55 12 32 50 35 50 4z m-10690 -28 c45 -6 50 -9 30 -14 -56 -16
-380 -13 -380 3 0 14 260 23 350 11z m9538 -73 c348 -380 733 -775 771 -791
15 -6 31 -11 36 -11 6 -1 9 -13 7 -27 -3 -33 75 -110 89 -88 10 17 20 8 21
-22 1 -23 34 -69 48 -69 4 0 10 13 13 30 5 22 11 28 23 23 10 -4 14 -14 12
-28 -4 -19 -1 -22 19 -21 15 1 23 7 23 19 0 9 7 17 16 17 12 0 15 -6 10 -24
-3 -14 -1 -28 7 -33 19 -15 66 -8 81 12 13 19 40 12 33 -8 -7 -21 19 -36 57
-33 20 2 39 -1 42 -6 3 -5 12 -4 19 2 8 7 18 9 23 6 14 -8 44 30 41 51 -2 10
0 24 5 32 5 8 4 16 -2 20 -15 9 9 56 28 56 12 0 15 -14 15 -58 0 -39 3 -56 11
-53 7 3 20 -2 31 -10 17 -14 17 -14 -1 -29 -24 -18 -40 -20 -30 -2 4 6 -7 -1
-24 -17 -18 -16 -29 -32 -27 -35 3 -3 -5 -10 -17 -17 -22 -12 -21 -12 15 -19
21 -4 50 -8 65 -10 15 -1 35 -5 45 -9 9 -5 24 -6 32 -2 8 3 14 0 12 -6 -3 -17
74 -18 80 -1 3 7 14 13 25 13 14 0 18 -5 14 -15 -6 -17 19 -21 29 -4 4 6 13 8
21 5 9 -4 14 2 14 17 0 18 2 19 10 7 9 -13 11 -13 20 0 8 12 10 12 10 1 0 -9
9 -5 23 11 18 19 37 27 77 31 37 4 50 3 42 -5 -7 -7 -7 -19 -2 -34 6 -15 6
-24 0 -24 -6 0 -10 -8 -10 -18 0 -10 -6 -26 -14 -37 -28 -41 -3 -101 28 -69
25 25 31 9 8 -21 -17 -22 -19 -31 -10 -63 5 -20 19 -45 30 -54 14 -12 16 -18
7 -19 -11 0 -11 -2 -1 -6 10 -4 10 -8 1 -19 -9 -11 -9 -14 1 -14 7 0 10 -7 6
-15 -3 -8 -1 -27 5 -42 7 -18 6 -28 -1 -33 -6 -4 -14 -32 -16 -64 -5 -51 -3
-56 15 -56 10 0 21 -5 23 -11 3 -9 9 -9 26 0 13 7 19 17 16 26 -4 9 -1 22 6
31 12 13 18 10 52 -23 22 -21 44 -47 50 -58 10 -19 10 -19 -8 -5 -10 7 -24 20
-31 28 -19 22 -46 0 -48 -39 -1 -19 -5 -46 -10 -61 -6 -22 -4 -28 9 -28 24 0
20 -15 -9 -34 -24 -16 -35 -56 -15 -56 6 0 10 -5 10 -12 0 -19 42 -58 62 -58
10 0 18 7 18 15 0 8 7 15 15 15 19 0 20 -26 1 -33 -9 -4 -12 -14 -9 -26 4 -14
-2 -27 -18 -41 -25 -20 -69 -27 -69 -10 0 6 -5 10 -12 10 -9 0 -9 -3 0 -12 7
-7 12 -22 12 -35 0 -16 48 -73 161 -190 145 -150 190 -203 175 -203 -3 0 -90
83 -193 184 -158 155 -189 182 -195 166 -7 -19 -1 -97 8 -112 3 -4 0 -8 -6 -8
-6 0 -9 -4 -6 -9 3 -4 -4 -17 -15 -27 -16 -14 -19 -26 -14 -54 6 -34 19 -76
36 -115 5 -11 10 -27 11 -35 2 -8 12 -22 23 -32 12 -10 15 -17 8 -18 -16 0
-17 -50 -1 -50 6 0 8 -3 5 -6 -3 -4 9 -25 28 -47 19 -22 35 -49 35 -59 0 -10
5 -18 10 -18 6 0 10 -6 10 -14 0 -7 7 -19 15 -26 8 -7 21 -25 28 -40 12 -22
12 -32 2 -51 -7 -12 -10 -30 -7 -38 4 -10 1 -13 -11 -8 -12 5 -24 -5 -43 -33
-15 -22 -31 -40 -36 -40 -5 0 -7 -4 -4 -9 3 -5 0 -11 -8 -14 -8 -3 -23 -23
-32 -44 -10 -20 -26 -45 -36 -55 -10 -10 -18 -27 -18 -39 0 -11 -14 -49 -31
-84 -19 -40 -28 -72 -24 -84 3 -11 2 -36 -4 -56 -5 -21 -6 -37 0 -41 15 -9 11
-106 -7 -125 -10 -11 -14 -32 -12 -63 l3 -45 216 207 c119 114 229 218 245
232 l29 25 -30 -35 c-16 -19 -128 -135 -248 -257 l-219 -223 4 -55 c1 -30 0
-56 -3 -58 -4 -1 -9 -12 -13 -24 -6 -18 -1 -25 23 -38 17 -8 31 -17 31 -19 0
-16 -14 -36 -25 -36 -8 0 -21 -7 -29 -16 -24 -23 -50 -13 -56 21 l-6 30 -62
-59 c-34 -32 -59 -62 -57 -67 3 -4 -2 -14 -10 -21 -9 -7 -24 -20 -33 -28 -9
-9 -34 -25 -55 -35 -43 -23 -45 -21 71 -55 40 -11 70 -25 67 -30 -3 -4 48 -20
112 -35 156 -35 392 -89 528 -120 61 -14 146 -34 190 -43 67 -15 80 -21 80
-37 0 -21 18 -16 -945 -295 -373 -108 -452 -131 -835 -245 -290 -86 -960 -275
-976 -275 -23 0 -1674 439 -2219 591 -140 39 -348 95 -461 125 -230 60 -259
69 -259 83 0 16 10 19 171 55 85 19 165 40 179 46 22 9 23 10 3 6 -13 -2 -23
0 -23 5 0 5 8 9 18 10 9 0 25 2 35 4 9 2 15 -1 11 -6 -3 -5 2 -9 10 -9 9 0 16
4 16 9 0 5 10 7 22 3 13 -3 19 -1 15 5 -5 7 0 9 11 6 20 -5 170 28 212 47 17
7 19 9 5 7 -15 -3 -20 2 -21 20 -2 23 10 31 21 14 3 -6 15 -8 27 -6 55 11 158
38 158 42 0 7 -28 33 -36 33 -4 0 -13 -8 -20 -17 -10 -15 -15 -16 -26 -5 -11
11 -10 16 6 28 15 11 16 14 5 14 -9 0 -16 6 -17 13 -2 21 -11 60 -25 112 -7
28 -15 106 -16 175 -2 124 -2 125 -31 150 -26 23 -28 28 -21 63 6 23 5 37 -1
37 -5 0 -6 5 -3 10 4 6 -38 57 -92 112 -54 56 -163 170 -243 252 -80 83 -183
190 -230 239 -46 48 -81 87 -76 87 5 0 111 -100 235 -223 308 -303 346 -338
365 -331 9 3 13 10 10 15 -3 5 -9 7 -14 4 -4 -3 -6 4 -3 15 5 17 8 18 22 8 9
-7 13 -9 9 -4 -10 12 12 66 27 66 11 0 13 14 10 57 -7 95 -31 213 -43 212 -21
-3 -32 3 -32 16 0 9 -7 18 -15 21 -8 4 -15 12 -15 20 0 8 -8 22 -18 32 -10 10
-21 26 -25 35 -4 10 -19 23 -34 29 -15 7 -32 18 -38 24 -5 6 -23 15 -38 18
-18 4 -27 12 -24 20 3 8 1 18 -5 24 -18 18 12 51 42 46 34 -7 70 22 73 59 1
15 7 31 14 35 7 5 9 13 3 21 -7 12 -11 11 -27 -4 -17 -18 -18 -18 -22 0 -1 10
4 22 13 27 9 5 16 16 16 23 0 19 17 19 37 0 11 -11 19 -13 28 -5 18 15 25 71
11 93 -8 13 -8 20 2 26 20 12 3 39 -26 43 -16 2 -26 8 -24 16 1 7 4 33 7 58 3
35 1 45 -10 42 -14 -3 -295 -261 -429 -393 -39 -39 -82 -78 -96 -86 -22 -15
-23 -18 -10 -35 13 -18 13 -18 -4 -3 -16 15 -1 33 249 285 147 148 271 279
276 292 5 13 14 20 19 17 6 -4 10 -3 9 2 -4 21 2 33 16 33 21 0 35 40 22 62
-9 13 -7 22 7 37 10 11 15 25 11 30 -3 6 -2 11 3 11 12 0 57 98 49 107 -4 3 0
17 9 31 9 13 11 21 5 18 -19 -12 -12 13 9 34 11 11 20 26 20 33 0 7 6 19 12
25 10 10 10 17 -1 33 -9 15 -10 24 -2 32 14 14 14 54 1 62 -15 9 -12 69 5 91
8 10 15 33 15 50 0 32 20 84 32 84 17 0 58 56 54 73 -4 18 30 40 47 30 4 -2 7
1 7 6 0 6 9 11 20 11 12 0 45 25 78 59 51 52 94 77 149 87 7 1 25 9 42 17 16
8 34 11 41 7 30 -19 228 -3 272 22 38 22 55 42 62 72 l7 30 13 -25 c8 -15 19
-23 32 -21 35 5 124 44 124 54 0 6 7 8 15 4 8 -3 15 -1 15 4 0 5 12 15 28 23
15 7 26 19 24 26 -1 6 3 11 10 10 13 -2 27 2 78 23 58 24 59 26 63 93 3 48 15
59 42 41 20 -13 25 -13 35 -1 7 8 16 13 20 10 11 -7 281 245 299 278 8 15 17
24 21 22 8 -5 551 517 592 568 12 15 23 27 25 27 2 0 30 -28 61 -62z m-7313
-78 c0 -29 -32 -41 -41 -16 -9 24 4 48 23 44 12 -2 18 -12 18 -28z m3733 8
c-6 -18 -28 -21 -28 -4 0 9 7 16 16 16 9 0 14 -5 12 -12z m-5404 -73 c-26 -35
-35 -40 -47 -29 -6 6 53 63 66 64 4 0 -4 -16 -19 -35z m9348 0 c0 -5 -5 -11
-11 -13 -6 -2 -11 4 -11 13 0 9 5 15 11 13 6 -2 11 -8 11 -13z m-1842 -10 c0
-8 -7 -15 -15 -15 -8 0 -15 7 -15 15 0 8 7 15 15 15 8 0 15 -7 15 -15z m120 0
c0 -8 -7 -15 -15 -15 -16 0 -20 12 -8 23 11 12 23 8 23 -8z m190 -39 c0 -3 -4
-8 -10 -11 -5 -3 -10 -1 -10 4 0 6 5 11 10 11 6 0 10 -2 10 -4z m-6826 -27
c-3 -5 -10 -7 -15 -3 -5 3 -7 10 -3 15 3 5 10 7 15 3 5 -3 7 -10 3 -15z
m10074 -11 c4 -21 -47 -53 -61 -39 -8 8 -4 18 13 36 25 27 43 28 48 3z m-3093
2 c3 -5 1 -10 -4 -10 -6 0 -11 5 -11 10 0 6 2 10 4 10 3 0 8 -4 11 -10z
m-7669 -126 c9 -34 -15 -59 -49 -50 -53 13 -41 76 14 76 22 0 30 -6 35 -26z
m10169 -4 c0 -8 -8 -16 -17 -18 -13 -2 -18 3 -18 18 0 15 5 20 18 18 9 -2 17
-10 17 -18z m-10955 -30 c0 -21 -15 -27 -25 -10 -7 12 2 30 16 30 5 0 9 -9 9
-20z m14600 -1 c0 -5 -4 -9 -10 -9 -5 0 -10 7 -10 16 0 8 5 12 10 9 6 -3 10
-10 10 -16z m-5940 -24 c0 -8 -4 -15 -10 -15 -5 0 -10 7 -10 15 0 8 5 15 10
15 6 0 10 -7 10 -15z m1450 -23 c0 -13 -12 -22 -22 -16 -10 6 -1 24 13 24 5 0
9 -4 9 -8z m390 -32 c0 -5 -4 -10 -10 -10 -5 0 -10 5 -10 10 0 6 5 10 10 10 6
0 10 -4 10 -10z m-3765 -30 c0 -20 -6 -26 -28 -28 -18 -2 -29 2 -33 12 -11 28
4 48 33 44 22 -2 28 -8 28 -28z m-7876 -7 c-37 -47 -56 -66 -86 -89 -54 -41
-37 -14 30 48 63 59 80 71 56 41z m8839 -5 c16 -16 15 -35 -2 -41 -21 -8 -50
17 -43 37 7 19 28 21 45 4z m2400 -40 c-3 -7 -13 -13 -23 -13 -10 0 -20 6 -22
13 -3 7 5 12 22 12 17 0 25 -5 23 -12z m732 -8 c0 -5 -2 -10 -4 -10 -3 0 -8 5
-11 10 -3 6 -1 10 4 10 6 0 11 -4 11 -10z m568 -57 c-4 -22 -22 -20 -26 1 -2
10 3 16 13 16 10 0 15 -7 13 -17z m-4401 -62 c-59 -61 -66 -78 -44 -100 9 -11
9 -14 0 -18 -7 -2 -15 -20 -19 -39 -6 -34 -28 -45 -49 -25 -22 20 -52 21 -75
1 -43 -38 -50 -20 -9 25 11 13 17 33 16 55 -2 28 3 37 23 47 14 8 39 11 55 8
26 -4 39 3 90 50 33 30 62 54 64 55 2 0 -21 -27 -52 -59z m1611 36 c2 -10 -3
-17 -12 -17 -18 0 -29 16 -21 31 9 14 29 6 33 -14z m-411 -1 c-3 -7 -1 -18 5
-24 14 -14 3 -42 -17 -42 -20 0 -31 28 -17 42 6 6 8 17 5 24 -3 9 2 14 12 14
10 0 15 -5 12 -14z m2751 -7 c-2 -6 -8 -10 -13 -10 -5 0 -11 4 -13 10 -2 6 4
11 13 11 9 0 15 -5 13 -11z m729 -35 c32 -26 47 -33 56 -25 16 12 55 10 81 -5
16 -9 18 -19 14 -57 -4 -34 -1 -51 11 -64 9 -11 25 -30 36 -43 l20 -24 -27 20
c-15 10 -28 22 -28 26 0 16 -40 29 -59 18 -15 -8 -25 -4 -50 19 -18 17 -31 39
-31 54 0 14 -17 43 -41 71 -49 55 -42 59 18 10z m-547 16 c0 -5 -9 -10 -20
-10 -11 0 -20 5 -20 10 0 6 9 10 20 10 11 0 20 -4 20 -10z m-3038 -15 c0 -5
-5 -11 -11 -13 -6 -2 -11 4 -11 13 0 9 5 15 11 13 6 -2 11 -8 11 -13z m2388
-9 c0 -8 -5 -18 -10 -21 -13 -8 -42 14 -34 26 9 15 44 10 44 -5z m850 -17 c0
-5 -5 -7 -12 -3 -8 5 -9 2 -5 -9 8 -21 -11 -33 -26 -17 -9 9 -7 15 7 26 23 17
36 18 36 3z m-4066 -32 c12 -19 -17 -57 -44 -57 -37 0 -53 46 -25 74 18 17 53
9 69 -17z m3976 19 c0 -3 -4 -8 -10 -11 -5 -3 -10 -1 -10 4 0 6 5 11 10 11 6
0 10 -2 10 -4z m-5135 -46 c64 -24 195 -164 195 -207 0 -12 -64 8 -93 29 -68
47 -148 122 -153 144 -10 41 5 51 51 34z m2198 -36 c-3 -8 -12 -14 -19 -14
-20 0 -30 30 -13 40 17 11 40 -7 32 -26z m2071 28 c2 -4 1 -14 -4 -22 -7 -11
-12 -12 -21 -3 -6 6 -8 16 -5 22 8 13 23 14 30 3z m521 -22 c3 -6 -1 -13 -10
-16 -19 -8 -30 0 -20 15 8 14 22 14 30 1z m-6541 -15 c4 -10 -1 -15 -14 -15
-20 0 -26 11 -13 23 10 11 20 8 27 -8z m3306 7 c0 -13 -12 -22 -22 -16 -10 6
-1 24 13 24 5 0 9 -4 9 -8z m115 -12 c15 -17 16 -24 7 -46 -15 -31 -57 -30
-78 1 -12 18 -11 24 2 43 19 27 45 28 69 2z m5895 10 c0 -5 -4 -10 -9 -10 -6
0 -13 5 -16 10 -3 6 1 10 9 10 9 0 16 -4 16 -10z m-2970 -10 c0 -5 -2 -10 -4
-10 -3 0 -8 5 -11 10 -3 6 -1 10 4 10 6 0 11 -4 11 -10z m3894 -11 c-3 -5 -10
-7 -15 -3 -5 3 -7 10 -3 15 3 5 10 7 15 3 5 -3 7 -10 3 -15z m-4121 -8 c-10
-11 -31 -23 -46 -26 -16 -4 -31 -14 -34 -21 -7 -19 -23 -18 -23 1 0 8 7 15 15
15 8 0 15 5 15 10 0 6 9 10 19 10 10 0 21 7 25 15 3 8 15 15 26 15 20 0 20 -1
3 -19z m-2188 -21 c-5 -8 -11 -8 -17 -2 -6 6 -7 16 -3 22 5 8 11 8 17 2 6 -6
7 -16 3 -22z m2085 10 c0 -5 -4 -10 -10 -10 -5 0 -10 5 -10 10 0 6 5 10 10 10
6 0 10 -4 10 -10z m850 -20 c0 -5 -4 -10 -10 -10 -5 0 -10 5 -10 10 0 6 5 10
10 10 6 0 10 -4 10 -10z m-462 -35 c3 -25 2 -27 -12 -16 -8 7 -20 10 -25 7
-19 -12 -23 15 -5 29 26 20 38 14 42 -20z m1547 -15 c-29 -32 -84 -63 -100
-56 -24 9 -17 30 17 57 59 44 71 49 87 34 13 -13 12 -17 -4 -35z m-1835 20 c0
-5 -5 -10 -11 -10 -5 0 -7 5 -4 10 3 6 8 10 11 10 2 0 4 -4 4 -10z m-2442 -33
c3 -22 -1 -27 -18 -27 -26 0 -37 25 -20 45 18 22 34 13 38 -18z m3192 -2 c7
-8 19 -15 26 -15 16 0 17 -9 4 -30 -8 -12 -10 -12 -15 2 -4 9 -14 14 -24 11
-9 -2 -24 3 -31 12 -12 14 -12 18 1 26 19 12 25 11 39 -6z m-430 1 c0 -3 -4
-8 -10 -11 -5 -3 -10 -1 -10 4 0 6 5 11 10 11 6 0 10 -2 10 -4z m286 -10 c3
-8 13 -12 25 -9 14 4 19 0 19 -15 0 -29 -20 -39 -36 -17 -8 11 -21 16 -34 12
-16 -4 -20 0 -20 19 0 17 6 24 20 24 11 0 23 -6 26 -14z m404 -16 c0 -5 -2
-10 -4 -10 -3 0 -8 5 -11 10 -3 6 -1 10 4 10 6 0 11 -4 11 -10z m-545 -9 c3
-5 1 -12 -5 -16 -5 -3 -10 1 -10 9 0 18 6 21 15 7z m439 -10 c9 -14 -4 -41
-19 -41 -18 0 -28 17 -21 35 6 17 32 20 40 6z m-3254 -26 c10 -12 8 -16 -11
-24 -28 -10 -44 1 -36 23 8 20 31 21 47 1z m2916 -1 c-3 -9 -6 -18 -6 -20 0
-3 -4 -3 -10 1 -11 7 -2 35 12 35 6 0 7 -7 4 -16z m-431 -4 c3 -5 -1 -10 -10
-10 -9 0 -13 5 -10 10 3 6 8 10 10 10 2 0 7 -4 10 -10z m105 -6 c0 -8 -5 -12
-10 -9 -6 4 -8 11 -5 16 9 14 15 11 15 -7z m4930 6 c0 -5 -2 -10 -4 -10 -3 0
-8 5 -11 10 -3 6 -1 10 4 10 6 0 11 -4 11 -10z m-4797 -15 c-3 -9 -8 -14 -10
-11 -3 3 -2 9 2 15 9 16 15 13 8 -4z m367 -5 c0 -11 -7 -20 -15 -20 -15 0 -21
21 -8 33 12 13 23 7 23 -13z m267 4 c8 -20 -9 -36 -30 -28 -20 7 -22 30 -4 37
21 9 27 7 34 -9z m-4027 -4 c0 -12 -28 -25 -36 -17 -9 9 6 27 22 27 8 0 14 -5
14 -10z m428 -22 c-3 -25 -34 -36 -50 -20 -17 17 -1 42 27 42 22 0 26 -4 23
-22z m3158 -15 c-1 -31 -23 -43 -33 -17 -4 11 0 22 12 30 10 8 20 14 20 14 1
0 2 -12 1 -27z m34 6 c0 -5 -4 -9 -10 -9 -5 0 -10 7 -10 16 0 8 5 12 10 9 6
-3 10 -10 10 -16z m317 -11 c-15 -9 -19 -4 -11 16 5 14 9 15 15 5 5 -8 3 -17
-4 -21z m3783 16 c0 -8 -4 -12 -10 -9 -5 3 -10 10 -10 16 0 5 5 9 10 9 6 0 10
-7 10 -16z m-3660 -14 c0 -5 -4 -10 -10 -10 -5 0 -10 5 -10 10 0 6 5 10 10 10
6 0 10 -4 10 -10z m2400 0 c0 -5 -4 -10 -10 -10 -5 0 -10 5 -10 10 0 6 5 10
10 10 6 0 10 -4 10 -10z m-2481 -66 c-9 -11 -15 -12 -26 -3 -11 10 -11 15 4
31 15 17 18 17 26 3 5 -10 4 -21 -4 -31z m-239 8 c0 -11 -8 -18 -20 -19 -22
-2 -29 32 -7 40 17 6 27 -1 27 -21z m410 4 c0 -8 -5 -18 -11 -22 -14 -8 -33
11 -25 25 10 16 36 13 36 -3z m2118 -218 c121 -128 236 -253 257 -278 l37 -44
-4 -106 c-3 -106 -17 -159 -28 -111 -3 12 -2 64 2 115 6 86 5 92 -15 108 -12
9 -31 25 -42 35 -10 10 -24 20 -30 23 -29 14 -95 67 -104 85 -5 11 -10 14 -10
8 -1 -9 -8 -10 -23 -4 -13 4 -29 6 -35 4 -7 -3 -13 0 -13 6 0 6 -5 11 -10 11
-6 0 3 -27 20 -60 17 -33 27 -60 22 -60 -7 0 -34 44 -116 191 -20 36 -20 37
-56 24 -24 -8 -42 -10 -53 -3 -14 7 -17 4 -17 -21 0 -20 9 -37 28 -53 50 -42
376 -397 370 -403 -2 -2 -94 86 -203 195 -110 110 -204 200 -210 200 -5 0
-107 -98 -227 -217 -120 -119 -220 -214 -224 -211 -10 11 23 64 77 122 50 55
53 81 3 31 -27 -27 -40 -33 -28 -12 6 8 3 8 -9 -1 -9 -8 -20 -11 -25 -8 -12 7
-52 -66 -52 -94 0 -28 -19 -62 -31 -55 -5 4 -9 68 -9 143 l0 138 256 267 c141
147 262 267 270 267 7 0 112 -105 232 -232z m-1838 212 c0 -5 -4 -10 -10 -10
-5 0 -10 5 -10 10 0 6 5 10 10 10 6 0 10 -4 10 -10z m-5550 -25 c0 -8 -4 -15
-9 -15 -13 0 -22 16 -14 24 11 11 23 6 23 -9z m720 -39 c0 -11 -19 -15 -25 -6
-3 5 1 10 9 10 9 0 16 -2 16 -4z m4970 -46 c0 -5 -4 -10 -10 -10 -5 0 -10 5
-10 10 0 6 5 10 10 10 6 0 10 -4 10 -10z m-5015 -30 c0 -8 -8 -16 -17 -18 -13
-2 -18 3 -18 18 0 15 5 20 18 18 9 -2 17 -10 17 -18z m-3654 -27 c6 -6 8 -16
5 -22 -10 -16 23 -41 54 -41 44 0 58 9 70 46 10 29 16 34 43 34 50 -1 68 -20
57 -60 -20 -70 -71 -100 -167 -100 -96 0 -150 36 -168 113 -6 21 -4 27 10 27
9 0 13 5 10 10 -10 16 73 9 86 -7z m2084 -23 c18 -28 32 -40 48 -40 17 0 30
11 46 40 22 39 24 40 77 40 41 0 56 -4 61 -16 8 -22 -10 -90 -24 -87 -6 1 -10
-5 -9 -13 0 -9 -10 -24 -24 -34 -31 -23 -75 -37 -66 -21 8 13 -21 4 -43 -13
-11 -8 -13 -8 -8 0 5 8 -6 10 -37 7 -44 -5 -91 11 -81 27 3 5 0 12 -6 16 -8 4
-9 3 -5 -4 9 -16 -7 -15 -22 0 -16 16 -15 31 1 22 8 -5 8 -2 -2 9 -16 20 -25
22 -16 5 4 -7 -1 -4 -9 6 -16 20 -22 77 -9 89 3 4 28 7 55 7 45 0 49 -2 73
-40z m1885 30 c0 -5 -4 -10 -10 -10 -5 0 -10 5 -10 10 0 6 5 10 10 10 6 0 10
-4 10 -10z m-690 -70 c0 -5 -4 -10 -10 -10 -5 0 -10 5 -10 10 0 6 5 10 10 10
6 0 10 -4 10 -10z m305 -59 c7 -12 -12 -24 -25 -16 -11 7 -4 25 10 25 5 0 11
-4 15 -9z m6115 -13 c0 -7 -49 -62 -110 -123 -60 -62 -110 -117 -110 -124 0
-10 -197 -111 -218 -111 -5 0 -13 -16 -16 -35 -13 -69 -85 -191 -140 -237
l-51 -43 32 38 c42 48 70 103 103 197 14 41 30 74 36 73 5 -1 20 14 32 34 26
39 21 37 -56 -20 -90 -68 -166 -184 -229 -347 l-25 -65 29 25 c63 57 75 61 26
10 -29 -30 -59 -64 -67 -75 -26 -36 -28 -7 -6 62 76 227 224 434 414 575 80
60 305 178 338 178 10 0 18 -5 18 -12z m969 -29 c44 -17 117 -53 163 -81 88
-53 224 -163 246 -199 19 -30 3 -19 -78 51 -36 31 -94 76 -129 100 -63 42
-199 110 -221 110 -6 0 5 -21 25 -47 46 -61 144 -163 155 -163 5 0 11 -4 14
-9 3 -4 -6 -6 -19 -3 -14 2 -35 18 -47 36 -11 17 -66 77 -122 134 -60 61 -94
102 -84 102 9 0 52 -14 97 -31z m-1979 11 c0 -5 -4 -10 -10 -10 -5 0 -10 5
-10 10 0 6 5 10 10 10 6 0 10 -4 10 -10z m2740 6 c0 -3 -4 -8 -10 -11 -5 -3
-10 -1 -10 4 0 6 5 11 10 11 6 0 10 -2 10 -4z m-8468 -45 c88 -42 153 -128
160 -212 l3 -34 -84 0 -85 0 -26 45 c-36 63 -88 81 -153 56 -70 -26 -92 -69
-92 -176 0 -72 4 -91 24 -124 55 -88 193 -87 230 2 7 16 20 32 29 34 23 6 152
1 159 -6 3 -3 -2 -31 -12 -63 -36 -113 -145 -192 -272 -199 -55 -2 -60 -1 -28
5 l40 8 -40 2 c-22 1 -51 4 -65 6 -22 5 -22 4 -5 -4 14 -7 15 -10 5 -10 -39
-2 -180 85 -180 110 0 6 5 7 10 4 16 -10 11 1 -7 16 -11 10 -14 10 -9 2 4 -7
5 -13 2 -13 -3 0 -10 10 -17 21 -7 15 -8 19 0 15 7 -5 9 -1 5 8 -3 9 -10 14
-14 11 -11 -7 -22 24 -13 37 3 6 1 8 -4 5 -26 -16 -32 180 -8 260 28 94 111
177 209 209 60 20 180 12 238 -15z m-4524 4 c9 -3 12 -39 12 -135 l0 -130 119
0 c103 0 120 2 125 17 6 15 8 15 17 3 6 -10 8 28 7 112 l-3 127 75 3 75 3 -3
-327 -3 -328 -69 0 -70 0 0 135 0 135 -135 0 -135 0 0 -135 0 -135 -70 0 -70
0 0 334 0 335 58 -5 c31 -3 63 -7 70 -9z m657 4 c4 -6 12 -8 19 -6 8 3 10 -26
8 -107 l-3 -111 78 -1 c104 -2 143 -6 138 -15 -7 -10 25 -20 37 -12 7 4 8 1 3
-7 -6 -10 -4 -12 8 -7 9 3 19 1 23 -5 4 -7 3 -8 -4 -4 -7 4 -12 5 -12 3 0 -3
16 -15 36 -26 24 -15 34 -26 30 -37 -3 -8 -2 -13 3 -10 12 8 17 -10 20 -81 3
-82 -23 -141 -79 -182 -58 -42 -122 -53 -284 -49 l-139 3 1 330 c1 182 1 331
2 333 1 8 110 0 115 -9z m580 0 c6 -2 9 -118 7 -331 l-3 -329 -72 3 -72 3 -5
325 c-3 179 -4 329 -2 333 3 7 112 4 147 -4z m257 6 c10 -4 12 -37 10 -153 -2
-81 -2 -172 0 -202 l3 -54 58 87 c32 48 55 92 52 97 -4 6 -1 9 7 8 7 -2 12 5
12 14 -1 10 1 16 5 14 4 -3 13 4 20 16 7 11 8 17 2 14 -7 -4 -8 -1 -5 8 3 9
10 14 14 11 12 -8 32 23 24 37 -4 7 -4 10 1 6 9 -9 40 30 31 39 -3 3 4 19 15
34 19 27 25 29 84 29 105 0 96 27 95 -294 -1 -156 -6 -304 -12 -329 l-10 -47
-69 0 -69 0 -2 203 -3 202 -135 -203 -135 -203 -65 3 -65 3 -2 275 c-2 151 -4
298 -5 327 -2 28 0 49 5 46 4 -2 7 1 7 6 0 11 106 16 132 6z m883 -128 c0 -93
3 -127 12 -127 7 0 42 41 79 90 36 50 70 88 74 85 5 -3 12 0 16 6 4 8 3 9 -4
5 -23 -14 -12 8 20 41 32 33 33 33 124 33 71 0 93 -3 97 -14 5 -13 -155 -226
-169 -226 -6 0 35 55 106 140 25 30 37 48 27 40 -11 -8 -62 -67 -114 -132
l-95 -118 31 -36 c17 -19 28 -40 25 -46 -4 -7 -2 -8 4 -4 11 7 17 -6 13 -27
-1 -5 2 -6 6 -4 5 3 45 -46 91 -110 60 -83 81 -120 77 -134 -4 -10 -11 -19
-16 -19 -6 0 -7 5 -4 10 3 6 -1 10 -10 10 -9 0 -13 -4 -10 -10 4 -6 -20 -10
-66 -10 -40 0 -70 3 -66 6 9 9 -35 54 -46 47 -6 -3 -7 -1 -3 6 8 13 -31 74
-43 66 -10 -5 -103 123 -97 133 3 5 -9 9 -25 10 l-29 2 0 -105 c0 -141 -3
-145 -90 -145 l-70 0 -2 283 c-1 176 -4 250 -8 197 -6 -84 -6 -84 -8 40 -1 88
1 121 9 110 8 -12 10 -12 8 5 -1 11 -1 24 0 28 0 4 36 7 79 5 l77 -3 0 -128z
m955 59 c0 -58 -3 -75 -16 -80 -9 -3 -76 -6 -150 -6 l-134 0 0 -50 0 -50 118
0 c168 0 162 3 162 -86 l0 -74 -144 0 -144 0 2 -56 1 -56 149 -4 c107 -2 152
-7 158 -16 4 -7 7 -40 6 -73 l-3 -60 -241 -3 -241 -2 0 172 c-1 95 -3 245 -5
333 -3 94 -1 165 5 173 7 9 68 12 243 12 l234 0 0 -74z m247 58 c3 -10 7 -90
7 -180 1 -89 2 -162 2 -161 1 1 39 58 85 127 45 69 100 149 121 178 l39 53 77
-3 77 -3 0 -340 0 -340 -84 -3 c-72 -2 -83 -1 -78 13 4 8 2 15 -3 15 -6 0 -10
66 -10 168 -1 152 -2 165 -16 147 -38 -49 -55 -69 -48 -56 5 9 3 12 -5 7 -6
-4 -10 -15 -9 -24 2 -9 -2 -16 -9 -15 -7 2 -10 -3 -7 -11 3 -8 0 -17 -7 -22
-8 -4 -10 -3 -5 4 4 7 5 12 2 12 -3 0 -10 -10 -17 -21 -8 -16 -8 -20 1 -14 14
9 1 -19 -25 -50 -16 -19 -16 -19 -4 5 9 20 9 23 -1 13 -7 -6 -13 -22 -14 -35
-1 -13 -7 -22 -13 -21 -6 1 -10 -5 -9 -15 0 -9 -4 -16 -10 -15 -7 1 -11 -5
-10 -15 0 -9 -4 -17 -11 -17 -19 0 -55 -43 -40 -48 7 -3 -22 -6 -64 -6 -74 -1
-77 0 -81 24 -7 35 -9 626 -2 648 8 25 161 26 171 1z m1713 1 c0 -8 -7 -15
-15 -15 -8 0 -15 7 -15 15 0 8 7 15 15 15 8 0 15 -7 15 -15z m-7432 -2 l22 -5
-2 -322 -3 -321 -67 -3 -68 -3 0 271 0 270 -130 0 -130 0 0 -270 0 -270 -70 0
-70 0 0 324 0 325 53 4 c84 6 440 6 465 0z m698 -3 c7 -2 9 -99 7 -314 -3
-171 -6 -317 -8 -324 -4 -9 -24 -12 -72 -10 l-68 3 -3 268 -2 268 -88 -3 -87
-3 -7 -140 c-8 -156 -22 -255 -43 -295 -24 -46 -80 -88 -128 -95 -75 -12 -82
-7 -85 56 -3 55 -2 56 29 65 68 19 83 76 95 354 4 103 11 168 18 173 10 6 416
4 442 -3z m445 1 c45 -1 45 -1 61 -48 9 -27 59 -167 112 -313 53 -146 96 -271
96 -277 0 -9 -21 -13 -74 -13 l-74 0 -24 73 -25 72 -120 3 -121 3 -24 -73 -25
-73 -63 -3 c-34 -2 -68 -1 -75 2 -9 3 4 52 47 173 32 92 82 233 109 313 28 80
55 150 60 156 5 7 29 11 52 9 23 -1 63 -3 88 -4z m785 -7 c-3 -9 -6 -35 -6
-59 l0 -44 -97 -3 -98 -3 0 -205 c0 -113 -1 -233 -3 -267 l-2 -63 -70 0 -70 0
0 270 0 270 -94 0 -94 0 -4 43 c-9 81 -21 78 278 77 234 -1 265 -3 260 -16z
m5426 -49 c0 -5 -5 -11 -11 -13 -6 -2 -11 4 -11 13 0 9 5 15 11 13 6 -2 11 -8
11 -13z m4543 -53 c0 -18 -20 -15 -23 4 -3 10 1 15 10 12 7 -3 13 -10 13 -16z
m1945 -56 c0 -35 -3 -83 -6 -107 l-6 -44 -55 -1 c-31 -1 -70 -10 -90 -20 -28
-15 -37 -16 -40 -6 -4 10 -8 10 -19 1 -9 -7 -14 -8 -14 -1 0 13 210 242 222
242 4 0 8 -29 8 -64z m-6560 44 c0 -5 -4 -10 -10 -10 -5 0 -10 5 -10 10 0 6 5
10 10 10 6 0 10 -4 10 -10z m150 -25 c0 -8 -4 -15 -9 -15 -13 0 -22 16 -14 24
11 11 23 6 23 -9z m-4213 -47 c-3 -7 -5 -2 -5 12 0 14 2 19 5 13 2 -7 2 -19 0
-25z m3943 2 c0 -11 -7 -20 -15 -20 -15 0 -21 21 -8 33 12 13 23 7 23 -13z
m5176 -19 c-10 -16 -36 -13 -43 5 -8 22 18 37 36 20 7 -8 10 -19 7 -25z m2249
-21 c3 -6 -1 -7 -9 -4 -18 7 -21 14 -7 14 6 0 13 -4 16 -10z m-9851 -35 c-15
-20 -29 -33 -32 -30 -5 5 46 65 55 65 2 0 -8 -16 -23 -35z m9889 21 c4 -10 1
-13 -9 -9 -15 6 -19 23 -5 23 5 0 11 -7 14 -14z m-7181 -31 c0 -5 -5 -11 -11
-13 -6 -2 -11 4 -11 13 0 9 5 15 11 13 6 -2 11 -8 11 -13z m-112 -14 c0 -5 -7
-14 -15 -21 -12 -10 -15 -10 -15 2 0 8 3 18 7 21 9 10 23 9 23 -2z m7556 -99
c-2 -2 7 -14 21 -28 41 -41 143 -274 143 -327 0 -19 -3 -18 -30 8 -19 18 -26
31 -19 35 22 14 -39 166 -117 288 -25 38 -29 49 -14 40 10 -7 18 -14 16 -16z
m-10539 -49 c-2 -16 -4 -5 -4 22 0 28 2 40 4 28 2 -13 2 -35 0 -50z m2633 -18
c0 -8 -7 -15 -15 -15 -16 0 -20 12 -8 23 11 12 23 8 23 -8z m-2289 -117 c11
-21 11 -22 -4 -9 -10 7 -17 17 -17 22 0 15 9 10 21 -13z m2354 -3 c0 -14 -6
-25 -13 -25 -7 0 -29 -12 -47 -26 l-34 -26 21 40 c12 22 34 44 48 50 14 5 25
10 25 11 0 1 0 -10 0 -24z m6164 9 l31 -6 0 -448 c0 -399 -2 -449 -16 -454
-19 -7 -157 -8 -176 -1 -10 4 -13 71 -11 350 1 319 -3 383 -23 330 -4 -9 -15
-20 -26 -26 -16 -9 -19 -8 -12 2 7 12 -50 -18 -113 -58 -21 -14 -21 -14 -25
64 -2 43 0 86 4 95 4 9 47 40 95 69 49 29 99 61 112 71 25 19 98 24 160 12z
m805 -10 c3 -9 6 -45 6 -81 0 -61 -6 -77 -78 -232 -44 -91 -110 -234 -147
-318 -38 -83 -72 -150 -77 -147 -4 3 -6 -1 -3 -8 3 -7 -8 -35 -23 -63 l-27
-50 -80 -3 c-92 -3 -125 3 -125 23 0 8 74 170 165 361 91 191 165 348 165 350
0 2 -90 4 -200 4 -170 0 -202 2 -206 15 -4 9 -3 49 1 90 l7 75 308 0 c271 0
309 -2 314 -16z m650 -14 c123 -47 171 -124 171 -270 0 -75 -4 -91 -30 -139
-33 -59 -67 -90 -141 -123 -42 -19 -66 -22 -172 -22 l-123 0 3 -26 c3 -25 3
-25 116 -28 l112 -3 0 -59 c0 -93 4 -90 -121 -90 l-108 0 -3 -62 -3 -63 -95 0
-95 0 -3 35 c-6 86 -11 97 -38 94 -15 -1 -37 2 -50 8 -22 10 -24 18 -24 75 l0
63 49 0 c54 0 63 6 54 38 -4 17 -14 22 -52 24 l-46 3 0 75 0 75 48 3 47 3 0
190 c0 119 4 198 11 211 11 20 17 20 222 16 191 -4 218 -7 271 -28z m918 -12
c-15 -15 -26 -4 -18 18 5 13 9 15 18 6 9 -9 9 -15 0 -24z m158 -28 c0 -5 -4
-10 -10 -10 -5 0 -10 5 -10 10 0 6 5 10 10 10 6 0 10 -4 10 -10z m-3510 -21
c0 -5 -4 -9 -10 -9 -5 0 -10 7 -10 16 0 8 5 12 10 9 6 -3 10 -10 10 -16z
m-5082 -22 c4 -20 -25 -34 -40 -19 -15 15 -1 44 19 40 10 -2 19 -11 21 -21z
m-3611 7 c-3 -3 -12 -4 -19 -1 -8 3 -5 6 6 6 11 1 17 -2 13 -5z m920 0 c-3 -3
-12 -4 -19 -1 -8 3 -5 6 6 6 11 1 17 -2 13 -5z m2813 -44 c0 -5 -4 -10 -10
-10 -5 0 -10 5 -10 10 0 6 5 10 10 10 6 0 10 -4 10 -10z m8090 -499 c0 -10
-379 -400 -400 -411 -35 -19 -8 44 41 97 47 50 66 79 34 53 -8 -7 -15 -9 -15
-4 0 5 -5 2 -10 -6 -5 -8 -10 -10 -10 -4 0 6 11 23 24 37 27 29 24 39 -9 31
-53 -13 -29 18 46 61 45 26 78 50 73 54 -5 3 -15 18 -23 34 -8 15 -18 27 -23
27 -5 0 -6 5 -3 10 4 6 -7 10 -24 10 -25 0 -47 -16 -125 -94 -52 -52 -93 -89
-92 -82 1 7 36 52 79 101 l77 88 -45 53 c-55 64 -62 100 -12 61 l33 -25 25 30
c34 43 34 42 -4 71 -33 25 -33 25 -26 88 6 60 4 67 -26 114 -17 28 -35 57 -39
65 -4 8 96 -90 223 -218 127 -128 231 -236 231 -241z m-8082 447 c-6 -18 -28
-21 -28 -4 0 9 7 16 16 16 9 0 14 -5 12 -12z m5454 -30 c-7 -7 -12 -18 -12
-26 0 -8 -16 -32 -35 -54 -37 -44 -38 -55 -12 -104 14 -27 14 -34 3 -43 -8 -7
-12 -26 -10 -51 2 -28 -1 -43 -14 -52 -23 -18 -44 -56 -33 -62 4 -3 33 22 64
54 54 58 77 72 77 49 0 -6 -23 -38 -52 -71 l-51 -59 40 -42 c23 -23 44 -53 48
-67 5 -19 -7 -11 -54 38 -49 49 -67 62 -92 62 -16 0 -28 -4 -24 -9 7 -12 -10
-22 -48 -30 -17 -4 -32 -11 -34 -17 -2 -6 28 -31 66 -57 65 -43 69 -47 68 -84
0 -21 -6 -41 -11 -45 -7 -4 12 -30 47 -65 51 -52 105 -133 88 -133 -4 0 -107
101 -231 225 -220 221 -223 225 -205 245 17 19 17 21 1 39 -17 19 -17 19 3 14
12 -3 21 -10 21 -17 0 -6 88 79 195 188 107 110 198 197 202 193 4 -4 1 -13
-5 -19z m-852 -28 c0 -5 -4 -10 -10 -10 -5 0 -10 5 -10 10 0 6 5 10 10 10 6 0
10 -4 10 -10z m208 -1 c-2 -6 -8 -10 -13 -10 -5 0 -11 4 -13 10 -2 6 4 11 13
11 9 0 15 -5 13 -11z m-108 -19 c0 -5 -4 -10 -10 -10 -5 0 -10 5 -10 10 0 6 5
10 10 10 6 0 10 -4 10 -10z m-87 -46 c11 -11 -5 -34 -24 -34 -12 0 -19 7 -19
20 0 19 28 28 43 14z m77 -178 c0 -19 -25 -27 -39 -13 -18 18 -13 27 14 27 15
0 25 -6 25 -14z m-6642 -42 c-2 -9 -10 -20 -18 -24 -78 -36 -95 -47 -98 -65
-3 -16 -1 -18 9 -7 20 19 83 15 103 -7 22 -24 30 -79 17 -114 -13 -35 -69 -61
-103 -48 -47 18 -63 48 -63 117 0 71 21 110 71 132 16 7 36 17 44 22 24 14 42
11 38 -6z m-5708 -14 c0 -5 -28 -10 -62 -12 l-63 -3 0 -38 0 -39 53 -2 c33 -2
60 -10 72 -21 27 -25 26 -82 -2 -112 -18 -20 -31 -23 -90 -23 l-68 0 0 130 0
130 80 0 c44 0 80 -4 80 -10z m1920 0 c0 -6 -28 -10 -65 -10 l-65 0 0 -45 0
-45 54 0 c47 0 57 -4 75 -26 28 -35 26 -69 -4 -100 -22 -22 -32 -25 -93 -22
l-67 3 0 127 0 128 83 0 c48 0 82 -4 82 -10z m5566 -31 c8 -14 -11 -33 -25
-25 -11 7 -4 36 9 36 5 0 12 -5 16 -11z m-7291 -44 c16 -15 25 -36 25 -55 l0
-30 -65 0 c-36 0 -65 -4 -65 -9 0 -44 49 -70 87 -46 31 21 50 9 27 -16 -26
-28 -88 -26 -119 6 -29 28 -34 89 -10 135 24 47 81 55 120 15z m183 9 c24 -16
29 -53 11 -71 -8 -8 -7 -17 4 -33 29 -41 -3 -80 -65 -80 -42 0 -88 34 -70 52
7 7 20 2 41 -13 25 -18 36 -21 49 -13 28 18 21 48 -12 54 -37 6 -47 30 -13 30
29 0 52 23 43 45 -7 20 -65 20 -72 0 -8 -19 -34 -20 -34 -1 0 20 39 46 70 46
14 0 36 -7 48 -16z m192 -29 c0 -58 15 -58 60 0 19 25 43 45 54 45 15 0 13 -7
-18 -44 -20 -24 -36 -48 -36 -53 0 -4 16 -28 36 -53 30 -38 33 -46 18 -49 -11
-2 -30 12 -52 38 -44 53 -62 53 -62 1 0 -29 -4 -40 -15 -40 -12 0 -15 18 -15
100 0 82 3 100 15 100 11 0 15 -12 15 -45z m288 28 c17 -15 21 -32 24 -98 l3
-81 -60 -2 c-66 -1 -95 15 -95 53 0 31 30 54 75 57 35 3 40 7 40 28 0 21 -5
26 -31 28 -19 2 -36 -3 -44 -12 -16 -20 -30 -20 -30 -2 0 21 39 46 71 46 15 0
36 -8 47 -17z m239 -85 c1 -90 0 -98 -18 -98 -17 0 -19 8 -19 85 l0 85 -45 0
-45 0 0 -85 c0 -69 -3 -85 -15 -85 -12 0 -15 18 -15 100 l0 101 78 -3 77 -3 2
-97z m81 56 c4 -49 17 -64 53 -64 27 0 28 2 31 53 2 38 7 52 18 52 12 0 16
-19 18 -97 3 -93 2 -98 -18 -98 -16 0 -20 6 -20 35 0 34 -1 35 -37 35 -21 0
-43 4 -49 8 -18 12 -34 49 -34 80 0 58 33 55 38 -4z m202 -17 c0 -35 3 -67 6
-70 4 -4 25 24 48 61 59 95 70 90 74 -30 2 -83 0 -98 -13 -98 -12 0 -15 13
-15 65 0 36 -4 65 -8 65 -4 0 -25 -29 -46 -65 -26 -44 -44 -65 -57 -65 -17 0
-19 8 -19 93 0 52 3 97 7 100 17 17 23 2 23 -56z m675 -7 c46 0 78 -29 78 -70
0 -45 -24 -60 -95 -60 l-58 0 0 94 c0 67 4 96 13 99 7 2 15 -9 20 -30 8 -29
13 -33 42 -33z m145 -30 c0 -82 -3 -100 -15 -100 -12 0 -15 17 -15 93 0 52 3
97 7 100 18 19 23 -1 23 -93z m188 84 c12 -8 22 -24 22 -35 0 -24 -11 -24 -33
1 -22 26 -63 26 -77 1 -17 -34 -12 -96 10 -116 17 -15 24 -16 45 -7 14 6 25
16 25 22 0 5 7 10 15 10 20 0 19 -19 -2 -42 -19 -21 -80 -24 -107 -5 -22 16
-34 72 -25 117 13 62 77 89 127 54z m212 1 c0 -10 -11 -15 -35 -15 l-35 0 0
-85 c0 -69 -3 -85 -15 -85 -12 0 -15 16 -15 85 l0 85 -30 0 c-20 0 -30 5 -30
15 0 12 16 15 80 15 64 0 80 -3 80 -15z m60 5 c0 -7 6 -7 19 0 72 38 141 -45
111 -134 -14 -45 -41 -60 -92 -53 l-39 5 3 -41 c2 -33 -1 -42 -15 -45 -15 -3
-17 9 -17 131 0 73 3 137 7 140 10 10 23 8 23 -3z m315 -15 c24 -23 30 -48 25
-105 -3 -40 -38 -70 -81 -70 -55 0 -81 26 -87 88 -4 47 -2 54 26 82 39 38 83
40 117 5z m200 0 c16 -15 25 -36 25 -55 l0 -30 -59 0 c-33 0 -62 -4 -65 -9 -8
-13 33 -61 53 -61 9 0 26 7 37 15 27 18 39 7 17 -17 -25 -27 -88 -24 -118 7
-37 37 -35 106 4 146 36 36 73 37 106 4z m307 -7 c28 -36 24 -113 -7 -143 -35
-36 -96 -35 -124 1 -24 31 -29 110 -8 136 34 44 107 47 139 6z m203 17 c0 -5
-15 -11 -32 -13 l-33 -3 0 -85 c0 -68 -3 -84 -15 -84 -12 0 -15 16 -15 85 l0
85 -35 0 c-33 0 -43 8 -28 24 11 11 158 2 158 -9z m65 -30 c0 -58 15 -58 59 0
18 25 40 45 47 45 20 0 18 -8 -17 -52 -35 -44 -34 -53 17 -115 25 -31 25 -33
6 -33 -12 0 -34 17 -52 40 -17 22 -38 40 -46 40 -10 0 -14 -12 -14 -40 0 -29
-4 -40 -15 -40 -12 0 -15 18 -15 100 0 82 3 100 15 100 11 0 15 -12 15 -45z
m190 36 c0 -5 12 -5 28 1 16 6 40 8 55 4 55 -13 77 -118 35 -171 -19 -24 -26
-27 -65 -22 l-43 5 0 -39 c0 -34 -14 -59 -26 -46 -5 5 -7 98 -5 225 1 28 6 52
11 52 6 0 10 -4 10 -9z m218 -28 c3 -28 6 -31 49 -36 52 -6 73 -25 73 -68 0
-39 -33 -59 -97 -59 l-52 0 -3 96 c-2 53 -1 98 1 100 12 11 26 -6 29 -33z
m192 -69 c0 -77 -3 -94 -15 -94 -12 0 -15 18 -15 100 0 84 2 98 15 94 12 -5
15 -26 15 -100z m200 92 c0 -9 -12 -16 -32 -18 l-33 -3 -3 -82 c-2 -65 -6 -83
-17 -83 -12 0 -15 17 -15 85 l0 85 -30 0 c-20 0 -30 5 -30 15 0 12 16 15 80
15 63 0 80 -3 80 -14z m70 -60 l5 -68 34 57 c69 114 81 112 81 -15 0 -82 -3
-100 -15 -100 -12 0 -15 14 -15 68 -1 65 -1 66 -18 46 -9 -12 -29 -42 -44 -68
-45 -76 -58 -63 -58 55 0 76 3 100 13 97 7 -3 14 -31 17 -72z m299 57 c12 -10
24 -35 28 -55 l6 -38 -67 0 c-73 0 -84 -12 -46 -50 23 -23 30 -24 65 -8 30 13
43 5 25 -17 -8 -9 -29 -15 -55 -15 -35 0 -48 5 -64 26 -24 30 -28 109 -8 135
31 40 82 50 116 22z m279 1 c24 -16 29 -53 11 -71 -9 -9 -8 -16 5 -28 20 -20
20 -35 1 -62 -27 -39 -113 -34 -135 7 -16 30 6 34 40 8 24 -17 35 -20 48 -12
28 18 21 48 -12 54 -33 6 -48 30 -19 30 30 0 55 23 47 43 -8 22 -62 23 -70 2
-8 -19 -34 -20 -34 -1 0 20 39 46 70 46 14 0 36 -7 48 -16z m197 -9 c22 -21
25 -33 25 -99 l0 -74 -37 -1 c-21 -1 -49 -2 -63 -2 -25 -1 -60 32 -60 56 0 28
36 56 78 62 37 5 43 9 40 27 -4 26 -49 34 -68 12 -17 -22 -42 -20 -38 1 4 21
43 43 76 43 13 0 34 -11 47 -25z m495 5 c17 -17 20 -33 20 -99 l0 -79 -37 -1
c-21 -1 -49 -2 -62 -2 -46 -2 -68 62 -33 94 10 9 37 19 60 23 42 7 52 20 30
42 -17 17 -48 15 -70 -5 -13 -11 -22 -13 -29 -6 -15 15 37 53 72 53 16 0 38
-9 49 -20z m230 -80 c0 -82 -3 -100 -15 -100 -12 0 -15 16 -15 85 l0 85 -35 0
-35 0 0 -55 c0 -66 -16 -104 -47 -111 -34 -9 -42 4 -14 25 20 16 25 29 29 95
l5 76 63 0 64 0 0 -100z m178 84 c20 -14 22 -24 22 -98 l0 -82 -59 -2 c-66 -2
-91 13 -91 52 0 32 31 57 79 63 41 6 51 19 29 41 -17 17 -48 15 -70 -5 -13
-11 -22 -13 -29 -6 -15 15 36 53 70 53 15 0 37 -7 49 -16z m112 -29 l0 -45 44
0 45 0 3 43 c2 29 8 42 18 42 12 0 15 -17 15 -95 0 -82 -2 -95 -17 -98 -15 -3
-18 4 -18 37 l0 41 -46 0 -46 0 4 -39 c3 -31 0 -41 -14 -44 -24 -7 -26 7 -20
111 3 68 8 92 18 92 10 0 14 -14 14 -45z m304 24 c27 -21 35 -49 13 -49 -7 0
-18 9 -25 20 -15 24 -54 26 -73 3 -22 -25 -18 -102 5 -119 28 -20 44 -18 71
12 22 23 25 24 31 9 10 -26 -27 -57 -71 -58 -54 -2 -85 36 -85 104 0 40 5 55
25 74 30 31 73 32 109 4z m8541 1 c18 -19 17 -20 -3 -20 -15 0 -22 6 -22 20 0
11 2 20 3 20 2 0 12 -9 22 -20z m1355 -90 c0 -5 -4 -10 -10 -10 -5 0 -10 5
-10 10 0 6 5 10 10 10 6 0 10 -4 10 -10z m-9170 -40 c0 -5 -7 -10 -15 -10 -8
0 -15 5 -15 10 0 6 7 10 15 10 8 0 15 -4 15 -10z m-5842 -33 c2 -10 -3 -17
-12 -17 -18 0 -29 16 -21 31 9 14 29 6 33 -14z m5230 6 c5 -17 -26 -29 -40
-15 -6 6 -7 15 -3 22 9 14 37 9 43 -7z m692 13 c0 -3 -4 -8 -10 -11 -5 -3 -10
-1 -10 4 0 6 5 11 10 11 6 0 10 -2 10 -4z m-1043 -33 c4 -12 -35 -29 -44 -19
-8 8 18 37 30 33 6 -2 12 -8 14 -14z m8800 -105 c-12 -16 -23 -25 -25 -19 -5
16 16 48 32 48 11 0 9 -7 -7 -29z m-2732 2 c3 -6 -1 -13 -10 -16 -19 -8 -30 0
-20 15 8 14 22 14 30 1z m3503 -1 c-2 -6 -8 -10 -13 -10 -5 0 -11 4 -13 10 -2
6 4 11 13 11 9 0 15 -5 13 -11z m-16010 -176 c-3 -112 -5 -128 -20 -131 -16
-3 -18 8 -18 118 l0 121 -62 -3 -63 -3 -2 -100 c-1 -55 -2 -108 -3 -117 0 -10
-7 -18 -15 -18 -13 0 -15 21 -15 130 l0 130 100 0 101 0 -3 -127z m6310 115
c-6 -18 -28 -21 -28 -4 0 9 7 16 16 16 9 0 14 -5 12 -12z m-6199 -55 c85 32
144 -73 91 -161 -19 -31 -24 -34 -65 -30 l-44 3 -3 -40 c-2 -28 -8 -40 -18
-40 -12 0 -15 22 -18 124 -3 132 1 162 19 144 7 -7 19 -7 38 0z m271 -3 c17
-9 40 -58 40 -86 0 -10 -17 -14 -65 -14 -54 0 -65 -3 -65 -17 0 -23 29 -53 52
-53 10 0 27 5 38 12 10 7 22 9 26 5 14 -14 -23 -39 -60 -40 -67 -2 -110 66
-86 138 19 56 72 81 120 55z m231 -78 c-3 -68 -1 -83 13 -88 22 -8 23 -84 1
-84 -10 0 -15 10 -15 30 l0 30 -70 0 -70 0 0 -30 c0 -20 -5 -30 -15 -30 -23 0
-19 65 6 100 14 18 23 49 26 82 7 78 5 77 70 74 l58 -2 -4 -82z m143 10 c16
-39 32 -72 35 -72 3 0 20 33 36 73 23 55 36 72 50 72 18 0 20 -8 23 -97 2 -82
0 -98 -12 -98 -12 0 -16 16 -18 68 l-3 67 -32 -67 c-18 -38 -38 -68 -46 -68
-7 0 -24 26 -37 58 -33 83 -40 84 -40 9 0 -53 -3 -67 -15 -67 -12 0 -15 17
-15 93 0 52 3 97 7 101 18 18 39 -5 67 -72z m316 68 c16 -9 40 -64 40 -92 0
-5 -29 -8 -65 -8 -54 0 -65 -3 -65 -17 0 -22 29 -53 49 -53 9 0 26 7 38 15 14
10 24 12 28 5 13 -20 -17 -40 -59 -40 -69 0 -109 64 -86 136 19 55 72 80 120
54z m218 -7 c2 -9 -8 -13 -32 -13 l-36 0 0 -85 c0 -69 -3 -85 -15 -85 -12 0
-15 16 -15 85 l0 85 -29 0 c-30 0 -46 12 -34 24 13 12 156 2 161 -11z m70 -20
c3 -28 7 -31 48 -36 51 -5 60 -11 69 -47 4 -18 0 -34 -16 -53 -19 -25 -26 -28
-78 -25 l-56 3 -3 84 c-2 46 0 91 3 98 9 24 30 8 33 -24z m190 -66 c3 -92 2
-97 -18 -97 -19 0 -20 6 -20 93 0 52 3 97 7 101 19 19 28 -8 31 -97z m182 30
l5 -68 45 68 c25 37 51 69 58 71 9 3 12 -21 12 -97 0 -82 -3 -101 -15 -101
-11 0 -15 16 -17 67 l-3 68 -40 -67 c-25 -42 -47 -68 -57 -68 -16 0 -18 11
-18 100 0 75 3 99 13 98 7 -2 14 -28 17 -71z m338 -14 c2 -46 7 -83 12 -83 6
0 10 -21 10 -46 0 -50 -22 -59 -28 -11 -3 26 -5 27 -68 27 -50 0 -64 -3 -65
-15 -1 -8 -2 -21 -3 -27 0 -7 -9 -14 -18 -16 -15 -3 -18 4 -18 38 0 26 5 43
14 46 20 8 36 58 36 114 0 26 2 49 5 52 3 2 31 4 63 4 l57 -1 3 -82z m100 17
c13 -35 25 -66 27 -68 2 -2 11 24 21 57 16 58 37 91 51 78 10 -11 -76 -251
-94 -264 -20 -15 -53 -17 -53 -3 0 5 9 14 20 20 42 22 42 43 5 147 -19 54 -35
99 -35 101 0 2 8 2 17 0 12 -2 26 -26 41 -68z m282 55 c0 -10 -10 -15 -30 -15
l-30 0 0 -85 c0 -68 -3 -85 -15 -85 -11 0 -15 18 -17 83 l-3 82 -32 3 c-32 3
-40 11 -26 25 3 4 39 7 80 7 58 0 73 -3 73 -15z m266 -6 c12 -9 15 -24 11 -51
-3 -21 -1 -41 4 -44 15 -9 10 -46 -8 -66 -12 -14 -31 -18 -80 -18 l-63 0 0
101 0 102 60 -6 c34 -3 68 -11 76 -18z m196 -51 l3 -72 45 70 c63 97 74 93 78
-28 3 -95 2 -98 -19 -98 -19 0 -21 4 -16 33 3 19 2 48 -1 66 l-7 32 -38 -65
c-26 -45 -45 -66 -58 -66 -17 0 -19 8 -19 93 0 52 3 97 7 100 16 17 22 2 25
-65z m210 30 l3 -43 45 0 45 0 1 40 c0 28 5 40 15 40 11 0 15 -21 17 -97 2
-81 0 -98 -12 -98 -10 0 -16 13 -18 43 l-3 42 -45 0 -45 0 -3 -42 c-2 -29 -8
-43 -18 -43 -11 0 -14 19 -14 93 0 52 3 97 7 100 15 15 22 5 25 -35z m288 36
c40 -9 60 -45 41 -76 -8 -13 -9 -23 -3 -27 22 -14 23 -50 3 -70 -17 -17 -34
-21 -81 -21 -33 0 -60 1 -60 3 -6 46 -11 171 -6 182 6 16 50 20 106 9z m222
-8 c18 -13 38 -57 38 -82 0 -11 -15 -14 -65 -14 -58 0 -65 -2 -65 -20 0 -11
12 -27 26 -37 25 -16 28 -16 55 -1 19 11 31 13 35 6 11 -18 -22 -40 -61 -40
-63 0 -90 41 -86 130 2 54 80 91 123 58z m108 -31 l0 -45 45 0 45 0 0 46 c0
38 3 45 18 42 9 -2 16 -7 15 -11 -2 -4 -3 -47 -3 -97 0 -73 -3 -90 -15 -90
-11 0 -15 12 -15 45 0 40 -2 45 -22 45 -55 0 -68 -10 -68 -51 0 -28 -4 -39
-15 -39 -12 0 -15 18 -15 100 0 82 3 100 15 100 11 0 15 -12 15 -45z m320 30
c0 -10 -10 -15 -30 -15 l-30 0 0 -86 c0 -76 -2 -85 -17 -82 -10 2 -18 12 -19
23 0 11 -1 48 -2 83 -2 62 -2 62 -32 62 -29 0 -38 9 -23 23 3 4 39 7 80 7 58
0 73 -3 73 -15z m160 -5 c17 -17 20 -33 20 -99 l0 -79 -37 -1 c-21 -1 -48 -2
-61 -2 -12 -1 -29 4 -37 11 -16 13 -20 57 -7 77 10 15 57 33 88 33 13 0 24 6
24 13 0 35 -57 50 -80 22 -14 -17 -40 -20 -40 -6 0 18 53 51 81 51 16 0 38 -9
49 -20z m100 10 c0 -7 6 -7 19 0 52 27 105 -5 115 -70 12 -78 -40 -142 -98
-120 -24 9 -26 8 -27 -20 -2 -51 -4 -55 -19 -55 -12 0 -15 22 -18 124 -1 69 0
131 2 138 6 15 26 18 26 3z m218 -28 c3 -30 6 -32 41 -32 38 0 67 -20 71 -50
9 -60 -15 -80 -91 -80 l-59 0 0 101 c0 90 2 100 18 97 11 -2 18 -14 20 -36z
m2132 13 c13 -14 19 -25 13 -25 -6 0 -18 11 -27 25 -9 14 -15 25 -13 25 2 0
14 -11 27 -25z m6321 -78 c39 -49 45 -65 16 -38 l-27 25 15 -50 c8 -27 18 -60
21 -74 l5 -25 -15 25 c-15 24 -56 142 -56 161 0 17 15 9 41 -24z m2394 -4 c-3
-16 -11 -32 -16 -38 -7 -7 -8 -4 -4 8 4 10 2 17 -4 17 -8 0 -7 6 1 20 18 29
31 25 23 -7z m-8380 -13 c0 -18 -6 -26 -23 -28 -13 -2 -25 3 -28 12 -10 26 4
48 28 44 17 -2 23 -10 23 -28z m-2265 -66 c0 -8 -9 -14 -20 -14 -19 0 -27 19
-14 33 10 9 34 -4 34 -19z m9399 -8 c20 -21 26 -37 29 -89 4 -59 2 -67 -24
-96 -53 -59 -158 -45 -184 25 -13 34 -13 110 1 135 32 61 128 74 178 25z m261
9 c0 -11 -11 -15 -40 -15 l-40 0 0 -105 c0 -98 -1 -105 -20 -105 -19 0 -20 7
-20 105 l0 105 -40 0 c-29 0 -40 4 -40 15 0 12 18 15 100 15 82 0 100 -3 100
-15z m-2070 -45 c0 -5 -5 -10 -11 -10 -5 0 -7 5 -4 10 3 6 8 10 11 10 2 0 4
-4 4 -10z m-4901 -149 c17 -11 7 -41 -13 -41 -19 0 -29 17 -22 35 6 17 15 18
35 6z m-47 -66 c0 -5 -5 -11 -11 -13 -6 -2 -11 4 -11 13 0 9 5 15 11 13 6 -2
11 -8 11 -13z m-1962 -15 c0 -23 -25 -27 -33 -6 -7 16 1 26 20 26 7 0 13 -9
13 -20z m738 -7 c5 -17 -26 -29 -40 -15 -6 6 -7 15 -3 22 9 14 37 9 43 -7z
m1497 7 c3 -5 1 -10 -4 -10 -6 0 -11 5 -11 10 0 6 2 10 4 10 3 0 8 -4 11 -10z
m8255 0 c0 -5 -7 -10 -15 -10 -8 0 -15 5 -15 10 0 6 7 10 15 10 8 0 15 -4 15
-10z m-10704 -27 c-10 -10 -19 5 -10 18 6 11 8 11 12 0 2 -7 1 -15 -2 -18z
m1891 11 c3 -8 -2 -23 -11 -32 -16 -16 -18 -16 -31 1 -7 11 -11 25 -8 33 7 19
42 18 50 -2z m666 -11 c-4 -10 -18 -28 -31 -41 -19 -18 -27 -20 -33 -11 -10
16 20 57 46 62 11 2 21 5 22 6 1 0 -1 -7 -4 -16z m4635 5 c20 -20 14 -56 -14
-74 -21 -15 -25 -22 -20 -49 9 -47 -13 -63 -54 -39 -40 24 -47 50 -22 77 11
12 23 33 27 47 4 14 12 31 17 38 13 15 50 16 66 0z m-4776 -18 c25 0 22 -15
-6 -33 -28 -19 -36 -13 -36 27 0 23 3 27 12 18 7 -7 20 -12 30 -12z m48 10 c0
-5 -4 -10 -10 -10 -5 0 -10 5 -10 10 0 6 5 10 10 10 6 0 10 -4 10 -10z m4980
-9 c0 -21 -13 -41 -26 -41 -15 0 -17 10 -8 34 7 17 34 22 34 7z m110 -22 c0
-5 -4 -9 -10 -9 -5 0 -10 7 -10 16 0 8 5 12 10 9 6 -3 10 -10 10 -16z m-5190
-13 c0 -3 -4 -8 -10 -11 -5 -3 -10 -1 -10 4 0 6 5 11 10 11 6 0 10 -2 10 -4z
m188 -55 c3 -8 -1 -12 -9 -9 -7 2 -15 10 -17 17 -3 8 1 12 9 9 7 -2 15 -10 17
-17z m5692 -171 c50 -30 172 -80 194 -80 5 0 2 8 -6 18 -57 66 -4 36 62 -35
31 -34 40 -49 29 -51 -51 -10 -360 169 -439 254 -29 30 -22 27 35 -18 39 -31
95 -70 125 -88z m-6802 107 c6 -30 -25 -67 -57 -67 -59 0 -63 51 -7 76 39 17
60 14 64 -9z m8407 -3 c-65 -56 -148 -114 -154 -108 -3 3 1 10 10 15 9 5 48
33 85 63 69 55 116 79 59 30z m-1331 -19 c18 -42 73 -95 99 -95 10 0 28 -5 39
-11 31 -17 45 4 24 36 -10 15 -16 29 -13 31 6 7 71 -17 87 -32 12 -12 12 -14
-3 -14 -22 0 -22 3 12 -59 17 -31 31 -48 35 -42 4 6 12 8 18 5 6 -4 28 -8 48
-9 21 -1 44 -6 51 -10 8 -4 -9 16 -37 46 -81 86 -154 172 -154 182 0 14 40
-19 142 -119 l99 -97 114 113 c63 63 117 111 121 107 4 -3 -44 -61 -105 -129
-61 -67 -111 -131 -111 -141 0 -10 8 -27 18 -38 19 -19 19 -19 36 0 22 25 45
9 38 -26 -6 -34 3 -28 39 22 22 31 35 41 40 33 4 -7 5 -16 2 -21 -3 -5 8 -2
25 7 17 9 72 62 124 119 53 60 96 100 100 94 4 -7 14 2 25 21 19 33 43 50 43
29 -1 -24 -29 -61 -106 -141 -44 -44 -111 -115 -149 -156 -38 -41 -110 -118
-161 -172 l-92 -96 -89 91 c-168 174 -378 400 -400 431 -25 33 -31 55 -10 37
16 -13 27 -5 27 21 0 27 8 22 24 -17z m-6224 -32 c27 -18 41 -35 35 -42 -2 -2
-20 10 -40 28 -38 33 -35 42 5 14z m6674 -9 c8 -20 -8 -17 -28 5 -17 19 -17
19 2 14 12 -3 23 -11 26 -19z m-2018 5 c8 -14 -18 -31 -30 -19 -9 9 0 30 14
30 5 0 12 -5 16 -11z m-4818 -41 c17 -17 14 -49 -6 -76 -41 -54 -106 6 -68 62
18 28 54 34 74 14z m358 -147 c70 -71 117 -112 126 -109 9 4 17 -6 24 -28 8
-26 8 -32 -2 -26 -7 4 -77 75 -156 157 -78 83 -134 143 -123 135 11 -8 70 -66
131 -129z m7188 119 c-6 -6 -63 -37 -128 -70 -166 -84 -183 -81 -86 15 58 58
87 69 33 13 -14 -15 -24 -30 -21 -34 3 -3 50 15 105 40 105 49 113 52 97 36z
m-11847 -45 c33 -7 94 -64 109 -102 18 -41 20 -516 3 -560 -15 -40 -48 -73
-94 -94 -38 -18 -97 -19 -1365 -18 -729 0 -1347 4 -1375 9 -28 4 -39 8 -25 9
14 2 34 5 45 7 11 3 126 9 255 15 129 5 260 15 290 20 362 66 584 70 1154 19
71 -6 133 -13 136 -15 11 -7 438 -20 657 -20 302 0 296 -6 301 304 5 272 1
305 -48 353 l-38 38 -248 0 c-136 0 -324 -7 -418 -15 -94 -8 -236 -19 -316
-25 -80 -6 -192 -16 -250 -22 -188 -20 -500 -12 -680 19 -19 3 -48 7 -64 9
-16 2 -66 10 -110 18 -80 14 -313 25 -578 27 -76 1 -136 5 -133 9 3 5 -3 10
-12 13 -10 2 290 5 666 6 377 1 686 2 687 4 5 4 1429 -4 1451 -8z m9171 -6
c-2 -6 -8 -10 -13 -10 -5 0 -11 4 -13 10 -2 6 4 11 13 11 9 0 15 -5 13 -11z
m-12384 -109 c-6 -6 -10 -3 -10 10 0 13 4 16 10 10 7 -7 7 -13 0 -20z m12253
14 c8 -21 -13 -42 -28 -27 -13 13 -5 43 11 43 6 0 13 -7 17 -16z m833 -29 c0
-8 -9 -15 -20 -15 -11 0 -20 7 -20 15 0 8 9 15 20 15 11 0 20 -7 20 -15z
m-5523 -42 c-3 -3 -11 -2 -17 2 -9 6 -9 10 1 16 14 8 27 -7 16 -18z m-2247 -3
c0 -5 -7 -10 -16 -10 -8 0 -12 5 -9 10 3 6 10 10 16 10 5 0 9 -4 9 -10z m7966
-27 c-10 -10 -19 5 -10 18 6 11 8 11 12 0 2 -7 1 -15 -2 -18z m-5241 7 c3 -5
1 -10 -4 -10 -6 0 -11 5 -11 10 0 6 2 10 4 10 3 0 8 -4 11 -10z m-829 -41 c3
-6 2 -15 -2 -19 -12 -12 -38 5 -30 19 9 14 23 14 32 0z m-6726 -90 c19 -47 39
-87 44 -90 5 -2 23 32 40 76 40 104 41 105 82 105 l34 0 0 -150 0 -150 -30 0
-30 0 -1 93 0 92 -32 -80 c-39 -99 -44 -105 -67 -105 -15 0 -27 20 -52 87
l-33 87 -3 -87 -3 -87 -29 0 -30 0 0 151 0 150 37 -3 c37 -3 38 -4 73 -89z
m445 61 c0 -24 -3 -25 -62 -28 l-62 -3 -3 -117 -3 -117 -32 -3 -33 -3 0 151 0
151 98 -3 c96 -3 97 -3 97 -28z m103 -32 l3 -58 54 0 54 0 3 58 c3 56 3 57 36
60 l32 3 0 -151 0 -151 -32 3 -33 3 3 57 2 56 -60 4 -60 3 0 -62 0 -63 -35 0
-35 0 0 151 0 150 33 -3 c32 -3 32 -4 35 -60z m459 19 c33 -37 40 -62 34 -137
-5 -73 -57 -120 -133 -120 -84 0 -138 59 -138 150 0 98 56 154 149 147 47 -3
59 -9 88 -40z m272 19 c25 -23 28 -72 4 -98 -15 -17 -15 -20 5 -39 33 -30 30
-91 -4 -118 -23 -18 -41 -21 -115 -21 l-89 0 0 151 0 151 89 -4 c70 -2 93 -7
110 -22z m269 -3 c-3 -27 -5 -28 -70 -31 -68 -3 -68 -3 -68 -32 l0 -30 65 0
65 0 0 -30 0 -30 -65 0 -65 0 0 -30 0 -30 70 0 70 0 0 -30 0 -30 -99 0 -100 0
-3 143 c-2 78 -2 145 0 150 2 4 48 7 103 7 l100 0 -3 -27z m110 -35 l3 -58 54
0 54 0 3 58 c3 56 3 57 36 60 l32 3 0 -151 0 -151 -32 3 -33 3 1 58 1 57 -58
0 -59 0 0 -60 0 -60 -35 0 -35 0 0 151 0 150 33 -3 c32 -3 32 -4 35 -60z m292
2 l0 -60 60 0 60 0 0 61 0 60 33 -3 32 -3 3 -147 3 -148 -36 0 -35 0 0 60 0
60 -60 0 -60 0 0 -60 0 -60 -30 0 -30 0 0 150 0 150 30 0 30 0 0 -60z m418 46
c91 -47 106 -182 28 -253 -30 -28 -43 -33 -86 -33 -41 0 -55 5 -85 31 -41 36
-59 93 -50 150 7 43 46 96 79 109 32 13 84 11 114 -4z m4892 -14 c0 -13 -12
-22 -22 -16 -10 6 -1 24 13 24 5 0 9 -4 9 -8z m-151 -93 c-14 -27 -39 -24 -39
5 0 27 18 39 37 24 9 -7 10 -16 2 -29z m294 -16 c-7 -2 -19 -2 -25 0 -7 3 -2
5 12 5 14 0 19 -2 13 -5z m8337 -43 c-8 -5 -20 -24 -27 -42 l-11 -33 -1 32
c-1 22 6 37 21 47 12 9 24 13 27 10 3 -3 -1 -9 -9 -14z m-2540 -94 c0 -3 -4
-8 -10 -11 -5 -3 -10 -1 -10 4 0 6 5 11 10 11 6 0 10 -2 10 -4z m2450 -146 c0
-5 -4 -10 -9 -10 -6 0 -13 5 -16 10 -3 6 1 10 9 10 9 0 16 -4 16 -10z m-11579
-243 c-13 -13 -26 -3 -16 12 3 6 11 8 17 5 6 -4 6 -10 -1 -17z m2602 -58 c139
-38 333 -93 432 -120 232 -65 1328 -376 1690 -480 522 -150 588 -170 604 -180
12 -8 8 -8 -14 -3 -49 11 -117 23 -170 30 -27 3 -57 8 -65 11 -8 4 -20 5 -27
4 -19 -3 -173 39 -204 55 -16 8 -32 13 -36 12 -16 -4 -73 14 -68 22 5 8 -43
20 -100 26 -16 1 -48 7 -70 12 -40 9 -893 250 -1290 364 -115 33 -345 98 -510
144 -434 122 -435 122 -435 150 0 13 3 24 6 24 3 0 119 -32 257 -71z m9068
-26 c-5 -10 -38 -46 -74 -80 l-65 -63 -104 1 c-115 1 -94 16 26 18 l69 1 73
70 c73 71 92 84 75 53z m-7534 -39 c-3 -3 -12 -4 -19 -1 -8 3 -5 6 6 6 11 1
17 -2 13 -5z m70 -20 c-3 -3 -12 -4 -19 -1 -8 3 -5 6 6 6 11 1 17 -2 13 -5z
m40 -10 c-3 -3 -12 -4 -19 -1 -8 3 -5 6 6 6 11 1 17 -2 13 -5z m40 -10 c-3 -3
-12 -4 -19 -1 -8 3 -5 6 6 6 11 1 17 -2 13 -5z m70 -20 c-3 -3 -12 -4 -19 -1
-8 3 -5 6 6 6 11 1 17 -2 13 -5z m98 -25 c14 -6 9 -7 -15 -3 -19 4 -44 11 -55
15 -14 6 -9 7 15 3 19 -4 44 -11 55 -15z m3028 -6 c9 -9 -13 -34 -24 -27 -14
8 -11 34 4 34 8 0 17 -3 20 -7z m-2976 -9 c-3 -3 -12 -4 -19 -1 -8 3 -5 6 6 6
11 1 17 -2 13 -5z m100 -30 c-3 -3 -12 -4 -19 -1 -8 3 -5 6 6 6 11 1 17 -2 13
-5z m40 -10 c-3 -3 -12 -4 -19 -1 -8 3 -5 6 6 6 11 1 17 -2 13 -5z m118 -30
c38 -13 38 -13 5 -7 -19 3 -53 12 -75 19 -38 13 -38 13 -5 7 19 -3 53 -12 75
-19z m72 -20 c-3 -3 -12 -4 -19 -1 -8 3 -5 6 6 6 11 1 17 -2 13 -5z m4472 -59
c140 -36 258 -68 261 -72 7 -8 -36 2 -265 57 -110 26 -215 51 -232 55 -32 6
-56 25 -32 25 7 0 127 -29 268 -65z m-7299 19 c-87 -27 -117 -30 -117 -9 0 10
7 13 21 10 12 -3 46 1 76 9 89 22 101 16 20 -10z m2937 10 c-3 -3 -12 -4 -19
-1 -8 3 -5 6 6 6 11 1 17 -2 13 -5z m40 -10 c-3 -3 -12 -4 -19 -1 -8 3 -5 6 6
6 11 1 17 -2 13 -5z m5650 0 c-3 -3 -12 -4 -19 -1 -8 3 -5 6 6 6 11 1 17 -2
13 -5z m-5610 -10 c-3 -3 -12 -4 -19 -1 -8 3 -5 6 6 6 11 1 17 -2 13 -5z
m4646 -104 c35 0 -41 -29 -333 -129 -330 -112 -380 -127 -380 -118 0 3 153 56
340 119 254 84 339 116 335 127 -4 9 0 11 11 7 8 -3 21 -6 27 -6z m816 -3 c-2
-1 -15 -11 -29 -22 l-25 -20 19 23 c11 12 24 22 29 22 6 0 8 -1 6 -3z m-2532
-159 c99 -123 136 -173 94 -130 -28 28 -38 28 -18 -1 34 -47 56 -87 49 -87 -4
0 -12 8 -18 18 -6 9 -47 60 -91 112 -100 119 -153 189 -153 201 0 5 9 9 19 9
12 0 54 -43 118 -122z m2427 60 c-42 -51 -110 -120 -128 -130 -33 -18 17 44
81 101 61 55 77 64 47 29z m1024 -119 c-27 -5 -75 -5 -115 0 -66 8 -65 8 47 9
95 0 107 -2 68 -9z m-888 -79 c-24 -34 -82 -81 -90 -74 -5 6 96 104 106 104 3
0 -4 -13 -16 -30z"/>
<path d="M11293 5488 c-555 -542 -658 -648 -643 -658 16 -10 32 -7 90 17 27
11 31 16 20 23 -18 11 -10 20 26 26 48 8 52 11 59 56 3 24 9 52 12 63 l6 20 8
-20 c4 -11 8 -35 8 -52 l1 -33 48 5 c50 4 144 47 196 89 17 14 49 39 71 56 22
17 51 40 65 51 106 83 187 125 237 122 33 -3 157 -66 147 -75 -3 -3 11 -18 30
-33 20 -15 33 -31 30 -36 -3 -5 1 -9 8 -9 8 0 22 -14 32 -30 9 -17 22 -28 27
-25 5 4 12 0 15 -9 9 -22 49 -45 91 -52 48 -7 56 -12 49 -30 -3 -8 -1 -14 4
-14 6 0 10 -9 10 -20 0 -22 28 -27 61 -10 15 9 19 22 20 68 0 64 17 122 18 64
1 -29 3 -32 26 -26 20 5 25 2 25 -13 0 -28 -10 -34 -33 -21 -19 10 -20 8 -14
-53 3 -35 12 -76 18 -90 13 -25 79 -60 128 -67 14 -2 33 -8 43 -13 10 -5 18
-6 18 -1 0 5 12 14 27 21 24 11 29 10 45 -9 20 -25 23 -46 8 -55 -20 -12 -9
-23 34 -38 41 -14 44 -14 39 1 -4 10 2 7 14 -7 11 -14 25 -21 31 -17 16 10
-28 68 -46 61 -7 -2 -11 -1 -8 4 8 13 -73 91 -94 91 -11 0 -21 3 -21 8 -1 4
-3 17 -4 29 -1 14 -52 72 -126 146 -68 69 -155 158 -194 198 -255 269 -459
479 -466 479 -5 0 -93 -82 -196 -182z m325 -143 c1 -6 -9 -11 -23 -13 -23 -3
-33 7 -20 20 8 8 40 3 43 -7z m370 -354 c23 -14 10 -46 -18 -43 -32 3 -44 24
-23 40 20 14 24 15 41 3z"/>
<path d="M10903 4773 c-7 -2 -13 -21 -13 -40 0 -34 -1 -35 -18 -20 -10 10 -32
17 -48 16 -26 0 -27 -1 -8 -9 43 -17 32 -29 -64 -65 -53 -21 -123 -51 -154
-66 -52 -26 -156 -72 -372 -166 -43 -18 -81 -31 -84 -29 -2 3 7 11 22 17 47
22 31 27 -65 21 -14 -1 -34 -8 -45 -16 -18 -14 -18 -14 8 -12 17 2 25 -1 22
-9 -4 -9 3 -11 20 -8 14 3 26 3 26 -1 0 -7 -81 -48 -143 -71 -46 -17 -48 -17
-61 0 -13 18 -14 17 -44 -3 -16 -12 -36 -22 -43 -22 -21 0 3 -17 42 -29 30
-10 93 -59 78 -62 -2 0 -15 -2 -29 -5 -14 -2 -50 -11 -81 -20 l-57 -16 -58
-118 c-32 -65 -61 -118 -64 -118 -3 1 -12 -2 -22 -6 -9 -4 -67 4 -130 18 -62
14 -137 28 -165 32 l-53 7 1 -139 c0 -196 4 -213 54 -230 22 -7 64 -19 94 -25
55 -11 119 -58 107 -78 -3 -5 -67 4 -143 20 -150 31 -177 34 -168 19 3 -5 2
-10 -2 -10 -5 0 -14 12 -21 28 l-12 27 6 -30 c3 -16 7 -39 10 -50 4 -15 1 -14
-10 5 -23 37 -19 5 4 -40 22 -44 21 -43 215 -85 65 -14 121 -28 124 -31 17
-16 -26 -14 -142 9 -74 15 -138 27 -144 27 -10 0 -13 -16 -13 -57 0 -13 -5
-23 -10 -23 -6 0 -4 -10 5 -23 12 -19 17 -112 27 -558 7 -297 8 -543 3 -554
-7 -18 -9 -18 -12 -2 -3 9 -9 17 -15 17 -6 0 -8 8 -6 18 7 26 -46 47 -63 26
-19 -23 -13 -74 12 -100 21 -22 24 -23 45 -9 13 8 27 15 31 15 4 0 16 -27 26
-59 18 -56 22 -61 67 -80 27 -12 55 -21 62 -21 23 0 53 -26 39 -34 -19 -12
-164 15 -182 35 -9 10 -21 14 -29 9 -17 -11 -10 -326 9 -355 11 -18 12 -17 6
10 -3 17 -8 94 -12 173 -5 127 -4 142 11 142 14 0 16 -17 17 -137 1 -151 10
-231 33 -285 13 -29 148 -120 206 -138 245 -79 252 -80 319 -50 55 25 67 25
176 -4 50 -13 369 -95 709 -181 340 -85 628 -161 640 -167 12 -6 44 -32 71
-58 49 -45 55 -48 204 -85 l155 -38 114 11 c90 8 118 14 135 30 12 11 86 67
164 125 141 106 163 128 163 166 0 14 53 56 203 158 367 253 356 246 404 239
49 -6 63 0 161 78 34 27 62 55 62 62 0 8 9 14 20 14 10 0 39 20 64 43 42 42
44 44 25 58 -10 7 -19 19 -19 26 0 7 -7 10 -15 7 -22 -9 -19 20 5 41 11 10 20
24 20 32 0 7 7 13 15 13 8 0 15 6 15 14 0 8 5 16 10 18 14 4 16 45 6 88 l-9
35 -12 -35 c-11 -32 -12 -29 -7 37 2 40 0 85 -7 103 -10 30 -8 34 20 61 20 18
29 35 25 46 -3 10 -8 41 -12 68 -4 28 -15 68 -26 89 -19 37 -20 54 -14 360 7
336 11 390 27 381 5 -4 7 -10 4 -15 -10 -16 -26 -660 -17 -692 11 -42 17 -11
20 100 7 321 23 831 27 850 5 27 -5 28 -55 2 l-39 -20 -6 33 c-13 75 -6 86 85
143 47 29 90 55 95 57 6 2 7 7 4 11 -3 3 -41 -14 -85 -39 -43 -25 -81 -45 -84
-45 -3 0 -5 30 -4 66 0 65 1 67 37 89 54 32 59 41 10 16 -23 -11 -44 -21 -45
-21 -2 0 -2 39 0 88 3 77 1 91 -18 115 -12 15 -27 27 -34 27 -15 0 -26 50 -26
120 -1 42 -6 51 -85 140 -85 96 -126 129 -91 74 l19 -29 -24 22 c-20 18 -32
21 -64 16 -30 -5 -35 -8 -20 -13 16 -6 8 -13 -45 -41 -95 -49 -141 -69 -136
-61 3 5 23 17 45 28 23 10 41 24 41 30 0 6 10 15 23 21 21 10 21 10 2 16 -11
3 -41 8 -67 12 -27 3 -48 10 -48 15 0 4 17 4 38 -1 20 -5 57 -8 82 -8 46 1 43
3 -49 20 -52 11 -53 12 -47 40 5 26 1 31 -34 49 -33 17 -40 26 -40 50 0 27 -3
29 -29 26 -15 -2 -79 3 -142 10 -62 7 -115 12 -116 10 -3 -3 151 -39 225 -52
33 -7 45 -24 15 -24 -16 0 -196 33 -388 71 -55 10 -228 44 -385 74 -521 100
-703 140 -707 152 -3 9 4 11 24 8 15 -3 97 -19 182 -35 160 -31 218 -38 172
-19 -13 5 -54 14 -90 19 -36 6 -73 12 -81 13 -8 2 -32 7 -53 12 -35 7 -62 25
-37 25 7 0 5 6 -4 16 -23 23 -136 0 -136 -27 0 -23 -18 -24 -44 -4 -11 8 -27
15 -37 15 -9 0 -22 6 -28 14 -10 12 -8 15 11 19 13 2 -15 5 -62 5 -47 0 -91
-2 -97 -5z m498 -143 c118 -22 304 -58 414 -80 110 -21 331 -64 490 -95 160
-31 302 -61 316 -66 27 -10 64 -73 53 -90 -3 -5 -38 -26 -77 -45 -147 -74
-608 -317 -605 -319 2 -2 47 -15 102 -28 71 -19 105 -23 123 -16 16 6 22 5 18
-1 -3 -6 -13 -10 -21 -10 -21 0 -17 -13 19 -61 19 -24 57 -77 85 -117 51 -71
52 -73 52 -145 0 -66 -3 -76 -34 -120 -18 -26 -39 -61 -46 -77 -8 -19 -22 -33
-39 -37 -25 -6 -51 -25 -51 -38 0 -3 5 -3 10 0 6 3 10 1 10 -4 0 -6 -4 -11
-10 -11 -11 0 -14 -73 -4 -83 10 -9 63 24 67 42 3 10 5 7 6 -6 0 -13 -4 -23
-10 -23 -5 0 -8 -4 -5 -9 4 -5 -9 -19 -28 -30 -36 -23 -51 -27 -41 -11 3 6 -1
10 -9 10 -9 0 -16 5 -16 12 0 23 -18 -7 -23 -37 -2 -16 -5 63 -6 177 0 129 3
209 9 213 6 3 10 11 10 16 0 6 -4 8 -9 5 -5 -4 -12 0 -14 6 -3 7 -6 1 -6 -14
-1 -15 -7 -31 -15 -35 -8 -4 -16 -17 -18 -28 -3 -14 -8 -7 -17 25 -65 240 -77
277 -99 299 -22 22 -29 23 -110 18 -122 -7 -122 -7 -118 -76 2 -31 13 -100 24
-153 31 -149 10 -174 -101 -123 -30 13 -97 34 -148 45 -52 11 -104 22 -116 25
-19 4 -23 1 -24 -17 -1 -16 -3 -18 -6 -7 -5 20 -25 25 -303 84 -741 157 -1315
282 -1338 290 -8 3 5 40 45 120 45 90 63 117 82 122 21 5 216 -32 766 -148 72
-15 189 -39 260 -54 72 -15 180 -38 240 -51 290 -63 324 -69 335 -58 19 19 20
53 2 58 -76 22 -1304 276 -1333 276 -6 0 -7 -4 -4 -10 3 -5 -3 -10 -14 -10
-11 0 -23 5 -27 12 -5 8 -2 9 10 5 10 -4 15 -3 11 3 -3 6 -17 10 -31 10 -32 0
-64 34 -64 68 0 32 6 35 175 107 55 23 141 61 190 83 473 212 527 234 615 242
150 13 183 11 401 -30z m-1341 -310 c-19 -11 -39 -19 -45 -19 -5 0 6 8 25 19
19 11 40 19 45 19 6 0 -6 -8 -25 -19z m2855 -169 c-3 -5 9 -20 25 -33 l31 -24
-34 -35 c-18 -19 -78 -57 -133 -85 -54 -28 -160 -84 -234 -123 -172 -93 -190
-100 -218 -90 -16 6 -22 16 -22 39 0 27 8 36 73 76 61 38 506 283 515 284 2 0
1 -4 -3 -9z m-255 -35 c0 -2 -7 -7 -16 -10 -8 -3 -12 -2 -9 4 6 10 25 14 25 6z
m470 -73 c0 -5 -49 -34 -108 -65 -104 -56 -286 -157 -520 -287 -62 -35 -115
-61 -118 -59 -7 7 25 27 179 112 229 126 420 232 487 270 67 37 80 42 80 29z
m-710 -57 c0 -2 -7 -7 -16 -10 -8 -3 -12 -2 -9 4 6 10 25 14 25 6z m563 -148
c2 -8 -4 -14 -17 -15 -11 0 -119 -56 -240 -123 -120 -66 -220 -119 -223 -117
-4 5 456 266 468 267 4 0 9 -6 12 -12z m157 -73 c0 -10 -80 -57 -91 -53 -7 2
8 16 32 31 43 26 59 32 59 22z m-1193 -155 c30 -100 32 -113 32 -271 1 -139
-1 -168 -14 -173 -40 -15 -45 0 -45 148 0 123 -4 157 -30 265 -17 67 -27 127
-24 132 3 6 16 9 27 7 18 -2 27 -20 54 -108z m-2488 87 c14 -17 4 -27 -26 -27
-35 0 -28 35 8 39 4 1 12 -5 18 -12z m961 -57 c421 -90 503 -109 514 -121 8
-7 4 -9 -14 -5 -52 12 -531 116 -652 142 -71 15 -128 31 -128 36 0 4 10 6 23
3 12 -2 128 -27 257 -55z m2750 15 c-7 -8 -12 -37 -12 -63 l2 -49 -78 -43
c-42 -24 -171 -99 -287 -166 -115 -67 -257 -149 -315 -182 -58 -33 -106 -67
-108 -76 -2 -10 19 -2 70 28 125 74 661 382 696 400 29 15 47 7 21 -9 -6 -4
-9 -29 -8 -56 2 -27 -1 -53 -7 -58 -5 -5 -112 -69 -238 -141 -152 -87 -235
-130 -248 -127 -15 4 -18 2 -14 -10 4 -11 2 -13 -9 -9 -9 3 -15 0 -15 -8 0 -9
-7 -12 -20 -9 -11 3 -20 0 -20 -6 0 -5 -7 -8 -15 -5 -8 4 -13 10 -10 14 3 4
-14 4 -36 -1 -23 -6 -44 -8 -46 -5 -8 8 57 37 68 31 5 -4 8 -1 7 6 -5 22 30
22 37 0 6 -21 25 -29 25 -11 0 6 -5 10 -11 10 -5 0 -7 5 -4 10 3 6 1 10 -6 10
-8 0 -7 5 2 17 13 15 -41 -12 -168 -84 -40 -22 -43 -27 -43 -66 -1 -56 -16
-118 -31 -128 -17 -10 -23 -4 -13 13 5 7 10 24 12 37 2 20 0 23 -17 18 -12 -3
-21 -1 -21 4 0 9 -92 -33 -118 -54 -10 -8 -10 -13 0 -25 11 -13 11 -14 -2 -7
-12 6 -13 5 -3 -5 10 -11 16 -10 32 4 20 18 24 5 8 -21 -5 -7 -6 -17 -3 -21 3
-5 -11 -16 -30 -26 -33 -15 -35 -15 -34 1 6 51 -1 92 -15 95 -8 2 33 30 92 63
101 57 138 83 130 91 -2 2 -48 -21 -103 -51 l-99 -55 -3 57 c-2 32 -9 65 -17
73 -11 13 -7 18 32 38 25 13 42 18 38 12 -3 -5 -20 -17 -37 -26 -16 -8 -27
-18 -25 -21 3 -3 18 4 34 15 15 10 63 38 106 62 54 29 75 45 66 51 -8 4 -11
10 -9 12 12 11 153 94 336 197 109 62 210 121 225 131 45 32 263 148 267 144
3 -3 -1 -11 -8 -20z m-3710 -27 c0 -19 -2 -20 -10 -8 -13 19 -13 30 0 30 6 0
10 -10 10 -22z m435 -63 c66 -15 124 -31 130 -36 6 -6 6 -9 0 -9 -25 1 -276
67 -282 74 -5 5 1 6 12 3 11 -3 74 -18 140 -32z m640 -41 c148 -31 278 -60
287 -65 10 -5 18 -19 18 -30 0 -11 -4 -17 -10 -14 -5 3 -10 -1 -10 -10 0 -11
-6 -14 -22 -10 -24 6 -47 -23 -92 -113 -13 -25 -23 -33 -39 -30 -12 1 -28 -1
-35 -5 -28 -18 -23 27 10 94 19 38 32 69 29 69 -7 0 -63 -95 -74 -128 -8 -21
-13 -22 -60 -16 -29 3 -81 14 -117 24 -118 34 -118 34 -123 8 -3 -15 -5 -10
-6 15 -1 38 25 102 54 131 9 9 33 16 53 16 l37 0 -33 17 c-30 14 -34 14 -51
-1 -9 -9 -34 -45 -55 -79 -33 -58 -39 -63 -65 -59 -24 3 -30 0 -34 -19 -3 -16
-5 -12 -6 13 -1 32 -5 39 -28 44 -16 3 -71 17 -123 30 -52 13 -160 37 -238 54
-79 16 -156 37 -170 45 l-27 14 33 1 c18 0 139 -23 269 -50 201 -43 241 -49
270 -39 18 6 33 17 33 24 0 8 6 12 13 10 6 -3 26 8 42 24 25 22 38 27 65 24
19 -2 44 -9 55 -14 30 -14 165 -38 165 -29 0 8 -68 25 -84 21 -4 -1 -14 3 -22
10 -7 6 -18 8 -24 4 -5 -3 -10 -2 -10 3 0 11 -115 42 -155 42 -24 0 -32 10
-18 23 10 11 11 10 298 -49z m-1018 -120 c-3 -3 -12 -4 -19 -1 -8 3 -5 6 6 6
11 1 17 -2 13 -5z m3813 -39 c0 -8 -4 -15 -10 -15 -5 0 -10 7 -10 15 0 8 5 15
10 15 6 0 10 -7 10 -15z m-3539 -35 c79 -16 203 -43 274 -59 72 -17 134 -31
139 -31 5 0 3 -6 -3 -14 -10 -12 -19 -12 -64 0 -29 8 -104 25 -167 39 -274 61
-340 77 -340 86 0 12 0 13 161 -21z m212 -7 c38 -8 66 -17 63 -20 -6 -6 -196
36 -196 44 0 5 18 2 133 -24z m1204 -43 c70 -16 139 -32 152 -35 13 -4 21 -8
18 -11 -5 -5 -307 65 -307 72 0 6 -1 6 137 -26z m1043 -34 c0 -14 -4 -28 -10
-31 -6 -4 -10 7 -10 24 0 17 5 31 10 31 6 0 10 -11 10 -24z m-1244 -11 c60
-14 186 -43 279 -65 94 -21 183 -43 198 -49 46 -18 57 -14 58 22 1 17 3 25 5
17 3 -9 27 -23 54 -33 27 -10 55 -24 63 -32 8 -7 32 -15 53 -17 24 -2 47 -12
61 -25 12 -13 32 -23 45 -24 13 -1 4 -5 -20 -11 -34 -7 -69 -4 -170 16 -71 14
-140 26 -154 26 -16 0 -27 7 -30 18 -5 19 -38 28 -333 93 -178 38 -315 75
-315 84 0 13 109 2 206 -20z m2135 -38 l29 -63 -10 -329 c-5 -182 -10 -400
-10 -486 0 -143 -2 -163 -25 -224 -54 -141 -39 -128 -348 -332 -155 -103 -315
-211 -355 -241 -41 -30 -79 -52 -87 -49 -21 9 -47 65 -43 95 l3 27 18 -32 c10
-18 22 -33 28 -33 9 0 576 374 665 438 34 25 47 44 72 109 l29 78 13 483 c12
470 11 483 -8 520 -10 20 -26 38 -34 40 -9 2 -39 -11 -68 -29 -36 -22 -55 -28
-62 -21 -8 8 12 26 67 61 43 28 82 51 87 51 5 0 22 -28 39 -63z m-2834 -9 c-3
-7 -5 -2 -5 12 0 14 2 19 5 13 2 -7 2 -19 0 -25z m1337 23 c3 -4 3 -11 0 -14
-8 -8 -34 3 -34 14 0 11 27 12 34 0z m-2176 -39 c2 -7 -3 -12 -12 -12 -9 0
-16 7 -16 16 0 17 22 14 28 -4z m800 -21 c3 -8 -8 -10 -40 -5 -51 8 -52 9 -45
28 5 13 11 13 43 2 21 -7 40 -18 42 -25z m1370 8 c-2 -6 -8 -10 -13 -10 -5 0
-11 4 -13 10 -2 6 4 11 13 11 9 0 15 -5 13 -11z m-2300 -506 c6 -232 8 -431 5
-443 -5 -19 -33 -29 -33 -12 0 4 -5 147 -10 317 -12 396 -14 621 -4 636 21 35
33 -97 42 -498z m649 501 c-3 -3 -12 -4 -19 -1 -8 3 -5 6 6 6 11 1 17 -2 13
-5z m40 -10 c-3 -3 -12 -4 -19 -1 -8 3 -5 6 6 6 11 1 17 -2 13 -5z m415 -22
c142 -29 154 -34 144 -50 -4 -6 -45 0 -103 15 -54 14 -118 28 -142 32 -24 3
-46 12 -49 19 -5 16 -8 16 150 -16z m1828 23 c0 -2 -10 -9 -22 -15 -22 -11
-22 -10 -4 4 21 17 26 19 26 11z m-2800 -15 c0 -5 -4 -10 -9 -10 -6 0 -13 5
-16 10 -3 6 1 10 9 10 9 0 16 -4 16 -10z m3620 0 c0 -5 -22 -21 -50 -35 -64
-32 -66 -17 -2 18 55 31 52 30 52 17z m-2400 -12 c0 -11 -42 -10 -60 2 -10 6
-3 8 23 7 20 -1 37 -5 37 -9z m2260 -8 c0 -5 -7 -10 -16 -10 -9 0 -92 -45
-183 -100 -153 -91 -216 -124 -200 -106 14 15 374 226 386 226 7 0 13 -4 13
-10z m-3039 -35 c132 -29 166 -42 152 -56 -6 -6 -59 0 -147 17 l-137 25 -42
-47 c-23 -26 -46 -53 -50 -61 -5 -7 -3 -235 4 -506 l12 -492 51 -72 c28 -40
56 -74 61 -76 19 -8 1193 -298 1428 -352 l117 -28 48 40 47 40 3 519 c1 286 0
529 -3 540 -2 12 -25 49 -49 82 l-45 60 -138 32 c-76 18 -150 39 -165 47 -27
13 -38 33 -18 33 23 0 297 -63 315 -73 22 -11 40 -33 103 -121 l42 -60 0 -539
0 -539 -37 -35 c-21 -19 -51 -45 -68 -58 l-30 -22 -430 107 c-236 59 -585 144
-775 190 -190 45 -350 84 -357 86 -6 1 -40 44 -76 94 l-64 91 -7 182 c-3 100
-9 334 -12 519 l-7 336 58 61 c37 39 66 61 80 61 12 0 74 -11 136 -25z m1243
-45 c153 -33 283 -60 287 -60 5 0 9 8 9 17 0 15 1 15 13 1 6 -9 19 -18 27 -21
8 -3 3 -6 -12 -6 -16 -1 -28 -5 -28 -10 0 -9 62 -25 250 -65 41 -9 82 -21 90
-26 36 -23 -100 -3 -307 45 -17 4 -23 0 -26 -17 -4 -21 -4 -21 -6 3 -2 46 -20
55 -181 89 -215 44 -433 99 -445 112 -12 12 -32 16 329 -62z m-464 40 c12 -8
12 -10 -2 -15 -24 -10 -71 -2 -76 13 -4 14 55 17 78 2z m417 4 c-3 -3 -12 -4
-19 -1 -8 3 -5 6 6 6 11 1 17 -2 13 -5z m46 -11 c-7 -2 -19 -2 -25 0 -7 3 -2
5 12 5 14 0 19 -2 13 -5z m1362 -3 c-3 -5 -11 -10 -16 -10 -6 0 -7 5 -4 10 3
6 11 10 16 10 6 0 7 -4 4 -10z m-1172 -32 c49 -11 86 -22 84 -25 -6 -5 -249
46 -257 54 -8 8 74 -6 173 -29z m750 15 c-7 -2 -21 -2 -30 0 -10 3 -4 5 12 5
17 0 24 -2 18 -5z m-120 -10 c-13 -2 -33 -2 -45 0 -13 2 -3 4 22 4 25 0 35 -2
23 -4z m-1518 -12 c3 0 8 -2 13 -3 4 -1 12 -6 19 -12 7 -6 19 -17 28 -24 13
-11 15 -33 13 -124 l-3 -112 -28 -7 c-18 -5 -25 -4 -20 4 4 6 0 8 -10 4 -22
-8 -94 13 -78 23 9 5 7 9 -7 12 -19 5 -21 15 -24 108 -4 129 -2 135 51 134 22
-1 43 -2 46 -3z m2450 0 c-23 -20 -227 -142 -231 -138 -3 2 19 19 48 36 29 17
82 49 117 71 62 38 86 50 66 31z m82 -69 l32 -30 -5 -249 c-6 -284 -9 -317
-30 -309 -8 3 -14 1 -14 -4 0 -5 -55 -43 -122 -85 -122 -75 -122 -75 -135 -53
-17 32 -17 33 14 47 15 7 66 38 113 68 47 31 93 56 103 55 12 0 17 4 13 14 -3
8 -1 14 5 14 5 0 13 -10 18 -22 13 -35 21 81 21 291 0 194 -6 225 -35 201 -19
-15 -25 -10 -54 45 -18 34 -19 40 -6 43 8 2 15 8 15 13 0 13 28 -3 67 -39z
m-1450 2 c-3 -3 -12 -4 -19 -1 -8 3 -5 6 6 6 11 1 17 -2 13 -5z m1355 -31 c30
-27 21 -48 -38 -88 -31 -21 -60 -48 -64 -59 -9 -21 -9 -21 -9 -1 -1 11 -10 38
-22 59 -23 44 -29 36 56 82 51 27 55 27 77 7z m-1122 -14 l25 -7 -25 0 c-14 0
-47 6 -75 13 l-50 14 50 -6 c27 -3 61 -9 75 -14z m-1837 -9 c63 -11 69 -15 97
-55 17 -24 30 -47 30 -51 0 -3 8 -14 18 -23 22 -21 76 -99 78 -116 2 -14 114
-184 114 -173 0 4 17 -1 39 -12 21 -11 83 -29 137 -40 54 -11 115 -24 134 -30
19 -6 44 -13 55 -15 11 -1 56 -10 100 -19 44 -9 85 -16 90 -16 6 0 56 45 113
101 56 56 102 98 102 95 0 -4 25 14 57 39 31 25 62 44 70 41 7 -3 42 -13 76
-22 79 -20 102 -33 89 -46 -7 -7 -33 -5 -83 6 -41 9 -75 12 -78 7 -25 -38 -73
-92 -178 -197 -146 -147 -147 -147 -289 -110 -55 15 -143 35 -197 46 -122 23
-234 57 -259 79 -11 9 -25 30 -32 47 -13 30 -188 303 -245 381 -21 28 -41 43
-63 48 -56 12 -100 34 -93 46 4 6 17 8 29 5 11 -2 51 -10 89 -16z m2150 -27
c-7 -2 -21 -2 -30 0 -10 3 -4 5 12 5 17 0 24 -2 18 -5z m337 -33 c-62 -45 -76
-49 -60 -19 14 25 68 59 95 59 14 0 3 -12 -35 -40z m-1704 8 c4 4 2 -1 -5 -10
-18 -24 -31 -23 -31 3 0 17 3 19 13 10 8 -6 18 -7 23 -3z m746 -18 c3 -16 1
-30 -4 -30 -4 0 -8 14 -8 30 0 17 2 30 4 30 2 0 6 -13 8 -30z m1282 -2 c21
-29 20 -40 -4 -68 -23 -27 -21 -29 -48 38 l-21 52 29 0 c18 0 34 -8 44 -22z
m-254 -46 c0 -7 -83 -52 -96 -52 -16 0 14 25 50 41 48 22 46 21 46 11z m190
-50 c0 -10 -5 -23 -11 -29 -6 -6 -10 -66 -11 -149 -1 -199 -12 -199 -18 1 -3
94 -1 176 4 183 13 18 36 15 36 -6z m-2235 -22 c69 -16 135 -30 146 -30 10 0
19 -7 19 -15 0 -11 -7 -14 -23 -10 -13 4 -79 18 -147 33 -69 15 -125 33 -128
40 -5 16 -13 17 133 -18z m-553 -27 c43 -60 51 -73 44 -73 -3 0 -24 27 -46 60
-48 71 -47 81 2 13z m1718 22 c0 -8 -4 -15 -10 -15 -5 0 -10 7 -10 15 0 8 5
15 10 15 6 0 10 -7 10 -15z m289 -67 c-2 -2 -17 -14 -34 -28 l-30 -25 29 32
c16 18 32 31 34 28 3 -3 3 -6 1 -7z m-879 -11 c0 -2 -17 -19 -37 -38 l-38 -34
34 38 c33 34 41 42 41 34z m-334 -42 c-6 -18 -45 -14 -121 11 -40 14 -40 14
-5 9 19 -3 52 -8 73 -12 31 -5 37 -3 37 13 0 13 3 15 11 7 7 -7 9 -19 5 -28z
m1283 11 c16 -19 26 -455 16 -739 -6 -198 -10 -230 -25 -250 -17 -20 -20 -20
-34 -7 -35 36 -38 147 -20 735 3 127 10 240 15 253 10 25 31 29 48 8z m-1039
-69 c0 -2 -17 -19 -37 -38 l-38 -34 34 38 c33 34 41 42 41 34z m1244 -73 c3
-8 2 -12 -4 -9 -6 3 -10 10 -10 16 0 14 7 11 14 -7z m-2084 -154 c-6 -12 -14
-19 -18 -16 -3 4 0 12 6 18 7 7 13 23 13 38 2 22 2 23 6 3 2 -12 -1 -32 -7
-43z m2580 -70 c23 -12 26 -38 7 -65 -13 -17 -15 -16 -25 15 -7 18 -11 67 -10
109 l2 76 3 -62 c3 -50 8 -65 23 -73z m-1520 7 c0 -2 -19 -21 -42 -42 l-43
-40 40 43 c36 39 45 47 45 39z m-730 -43 c32 -5 271 -63 345 -84 114 -32 115
-33 147 -80 9 -14 39 -56 67 -95 28 -38 64 -95 82 -125 17 -30 47 -72 65 -92
18 -21 36 -49 40 -63 5 -19 16 -27 48 -35 22 -6 56 -16 73 -21 18 -6 37 -8 43
-4 12 7 13 -5 2 -23 -8 -12 -17 -11 -210 33 -16 4 -59 60 -148 194 l-125 189
-77 21 c-42 11 -108 27 -147 35 -38 8 -109 24 -157 36 -48 11 -99 20 -115 18
-15 -1 -38 2 -49 6 -18 5 -41 -14 -140 -113 -118 -119 -119 -120 -154 -112
-19 5 -68 17 -107 26 -61 14 -73 21 -73 37 0 14 5 18 15 14 9 -3 43 -13 77
-21 l61 -16 136 137 c75 75 145 140 156 145 19 8 64 6 145 -7z m2480 -21 c-1
-10 -360 -234 -360 -225 0 4 53 41 117 82 64 41 142 92 172 112 58 38 71 43
71 31z m-2351 -175 c230 -57 278 -75 258 -94 -3 -3 -102 17 -219 46 -117 28
-235 54 -261 57 -48 6 -49 6 -109 -53 l-61 -59 48 58 c26 31 51 57 55 57 4 0
11 11 14 25 4 14 10 25 14 25 4 0 121 -28 261 -62z m2755 -55 c-8 -34 -30 -61
-67 -79 -25 -13 -28 -13 -34 3 -4 10 -1 19 7 21 8 3 32 22 54 43 23 21 42 39
44 39 1 0 -1 -12 -4 -27z m-3904 -44 c0 -5 -7 -9 -15 -9 -15 0 -20 12 -9 23 8
8 24 -1 24 -14z m3740 16 c0 -7 -693 -471 -740 -495 -49 -25 -2 9 175 128 99
66 263 176 365 245 173 117 200 134 200 122z m-2990 -28 c0 -2 -17 -19 -37
-38 l-38 -34 34 38 c33 34 41 42 41 34z m-735 -37 c3 -5 1 -10 -4 -10 -6 0
-11 5 -11 10 0 6 2 10 4 10 3 0 8 -4 11 -10z m3845 -35 c0 -8 -7 -15 -15 -15
-16 0 -20 12 -8 23 11 12 23 8 23 -8z m-3180 -20 c-7 -9 -15 -13 -17 -11 -7 7
7 26 19 26 6 0 6 -6 -2 -15z m-491 -104 c83 -23 94 -30 82 -50 -7 -11 -17 -11
-62 0 -30 8 -59 13 -66 13 -7 -1 -11 1 -10 5 1 3 -8 18 -21 31 -13 14 -28 34
-34 45 -10 19 -9 18 13 -2 13 -12 57 -31 98 -42z m281 0 c65 -18 926 -232
1230 -305 192 -47 285 -74 270 -80 -8 -3 -130 23 -270 59 -140 35 -502 126
-803 201 -301 76 -555 143 -565 150 -21 15 27 7 138 -25z m3139 -47 c-13 -14
-76 -61 -139 -103 -63 -43 -190 -128 -281 -189 -91 -62 -172 -112 -178 -112
-40 0 51 76 246 206 62 41 168 113 235 160 82 57 125 81 132 74 6 -6 2 -18
-15 -36z m-3399 -30 c0 -2 -7 -4 -15 -4 -8 0 -15 4 -15 10 0 5 7 7 15 4 8 -4
15 -8 15 -10z m2440 -29 c-19 -19 -38 -35 -44 -35 -6 0 7 18 29 40 21 22 41
37 44 35 2 -3 -11 -21 -29 -40z m-142 -75 c3 -8 -20 8 -51 34 -32 27 -57 53
-57 59 0 13 102 -75 108 -93z m-2278 70 c0 -13 -11 -13 -30 0 -12 8 -11 10 8
10 12 0 22 -4 22 -10z m442 -110 c89 -22 175 -40 193 -40 18 0 63 -11 101 -25
38 -14 186 -54 329 -90 503 -125 560 -144 573 -184 4 -11 -4 -12 -34 -7 -59
11 -382 89 -639 155 -282 73 -335 85 -341 78 -8 -8 -127 22 -134 34 -4 5 -48
21 -99 34 -104 28 -131 40 -131 59 0 13 9 26 18 26 2 0 76 -18 164 -40z m2176
-2 c-2 -16 -11 -24 -30 -26 -14 -2 -32 -10 -38 -18 -16 -18 -50 -18 -50 0 0 7
13 19 30 26 16 7 35 18 41 26 6 8 20 14 31 14 14 0 19 -6 16 -22z m-2578 -12
c0 -10 -7 -12 -22 -8 -21 5 -21 6 -2 13 10 4 20 8 22 8 1 1 2 -5 2 -13z m2053
-32 c84 -23 97 -25 171 -15 80 11 173 15 165 7 -2 -3 -60 -10 -128 -16 -69 -5
-130 -15 -137 -21 -17 -14 -204 29 -204 46 0 32 17 32 133 -1z m516 -51 c0
-32 -3 -52 -6 -45 -2 6 -9 10 -14 6 -5 -3 -9 0 -9 5 0 6 5 11 10 11 15 0 12
47 -2 53 -10 4 -9 8 2 16 8 6 16 11 18 11 1 0 2 -26 1 -57z m-569 -34 c0 -6
-4 -7 -10 -4 -5 3 -10 11 -10 16 0 6 5 7 10 4 6 -3 10 -11 10 -16z m0 -38 c0
-6 -4 -13 -10 -16 -5 -3 -10 1 -10 9 0 9 5 16 10 16 6 0 10 -4 10 -9z m300
-154 c0 -173 -8 -207 -50 -207 -16 0 -17 4 -9 32 5 18 9 102 9 185 l0 153 25
0 25 0 0 -163z m398 142 c1 -9 -12 -19 -35 -26 -21 -6 -39 -10 -41 -9 -7 8 12
35 31 44 27 13 41 10 45 -9z m-883 -70 c32 -8 48 -8 65 1 20 11 21 10 10 -9
-15 -29 -51 -35 -117 -22 -63 12 -68 15 -58 30 8 14 45 14 100 0z m882 -6 c3
-7 -3 -9 -16 -6 -12 3 -21 10 -21 15 0 13 32 6 37 -9z m-927 -63 c0 -11 -4
-20 -10 -20 -5 0 -10 9 -10 20 0 11 5 20 10 20 6 0 10 -9 10 -20z m337 -162
c-2 -24 -4 -5 -4 42 0 47 2 66 4 43 2 -24 2 -62 0 -85z m-262 2 c61 -15 104
-29 97 -29 -17 -1 -182 36 -212 48 -45 18 4 10 115 -19z m170 -40 c25 -11 -1
-11 -35 0 -20 6 -21 8 -5 8 11 0 29 -3 40 -8z"/>
<path d="M11015 4621 c-71 -5 -99 -14 -220 -69 -77 -35 -268 -121 -425 -190
-234 -105 -285 -131 -285 -147 0 -14 8 -21 28 -23 18 -2 27 1 27 11 0 8 11 18
25 21 27 7 268 27 272 23 1 -2 0 -13 -4 -26 -6 -22 -8 -22 -134 -19 -95 2
-130 0 -133 -9 -6 -15 18 -22 224 -63 85 -18 310 -65 500 -105 674 -142 669
-141 733 -125 47 11 69 11 126 0 l69 -13 188 98 c378 195 562 296 568 310 3 8
2 23 -1 32 -5 13 -2 15 13 10 18 -7 18 -6 1 7 -9 7 -95 28 -190 46 -94 17
-295 56 -444 86 -252 50 -356 66 -274 43 73 -22 17 -18 -111 7 -96 19 -135 31
-132 39 4 9 -29 19 -109 34 -139 26 -208 31 -312 22z m133 -13 c7 -7 12 -21
12 -32 0 -29 13 -46 38 -51 16 -3 22 1 22 14 0 27 1 27 835 -139 97 -19 133
-39 118 -63 -3 -6 -1 -7 6 -3 16 10 51 -3 51 -18 0 -7 -17 -20 -37 -28 -38
-14 -38 -14 -74 24 -41 43 -63 48 -80 17 -9 -18 -7 -25 15 -45 14 -13 30 -24
36 -24 23 0 7 -17 -43 -43 -92 -50 -284 -146 -312 -157 -22 -8 -25 -14 -17
-22 21 -21 13 -26 -23 -18 -43 10 -41 0 8 -51 20 -21 37 -40 37 -43 0 -2 -29
-3 -65 -2 -38 0 -63 5 -61 11 6 19 -34 63 -65 70 -24 6 -28 9 -18 21 9 11 7
14 -12 14 -13 0 -31 -5 -39 -10 -12 -8 -11 -13 8 -39 12 -17 18 -31 13 -31 -6
0 -75 14 -153 31 -79 17 -240 50 -358 75 -355 73 -489 102 -500 109 -16 10
-12 33 8 44 15 9 15 12 2 20 -20 14 -11 20 45 28 42 5 48 4 42 -10 -3 -9 1
-23 9 -32 17 -17 81 -20 104 -4 13 8 13 9 -2 7 -20 -4 -22 3 -13 40 5 23 19
35 75 62 73 35 90 53 25 26 -21 -9 -40 -16 -44 -16 -9 1 66 40 129 67 50 21
53 22 31 3 -13 -11 -21 -20 -19 -20 2 0 42 16 88 36 89 37 127 62 78 50 -37
-9 -36 -1 2 13 18 6 28 6 25 1 -4 -6 3 -10 15 -10 20 0 20 1 -5 50 -31 62 -31
66 3 78 37 14 46 14 60 0z m-244 -33 c-10 -8 -23 -14 -29 -14 -5 0 -1 6 9 14
11 8 24 15 30 15 5 0 1 -7 -10 -15z m139 -52 c-9 -7 -22 -13 -27 -13 -6 0 -3
5 7 11 12 7 16 17 12 32 -6 22 -6 22 10 2 14 -18 14 -21 -2 -32z m-318 -30
c-60 -31 -167 -74 -172 -69 -5 4 198 95 212 95 6 0 -12 -12 -40 -26z m274 13
c-9 -8 -282 -126 -285 -123 -6 6 260 126 280 127 5 0 7 -2 5 -4z m-479 -101
c-14 -8 -29 -14 -35 -14 -5 0 1 6 15 14 14 8 30 14 35 14 6 0 -1 -6 -15 -14z
m194 -80 c-10 -8 -26 -14 -34 -14 -9 0 -4 6 10 14 33 19 49 19 24 0z m1713
-10 c-68 -19 -139 -23 -144 -8 -5 15 24 20 117 21 l75 0 -48 -13z m-2132 -14
c-7 -12 -116 -54 -122 -47 -5 5 96 54 115 55 7 1 11 -3 7 -8z m1732 -167 c-4
-4 -64 -37 -134 -73 -122 -63 -128 -68 -133 -101 l-6 -35 -8 35 c-5 19 -5 36
0 37 5 2 68 35 139 73 117 63 160 82 142 64z"/>
<path d="M11198 4493 c-65 -5 -61 -23 5 -23 58 0 91 13 62 24 -9 3 -17 5 -18
4 -1 -1 -23 -3 -49 -5z"/>
<path d="M11178 4436 c-8 -7 -24 -16 -36 -20 -12 -4 -43 -24 -69 -45 -27 -20
-71 -48 -99 -61 -41 -20 -51 -30 -50 -48 1 -17 10 -25 36 -32 50 -13 153 -35
235 -50 39 -7 106 -21 150 -31 146 -34 167 -30 359 66 112 56 160 85 143 85
-15 0 -27 4 -27 9 0 8 -64 25 -100 26 -8 0 -20 3 -26 7 -14 10 -239 54 -314
63 -66 7 -120 23 -120 36 0 14 -67 11 -82 -5z"/>
<path d="M11743 4214 c-102 -51 -195 -91 -229 -98 -72 -14 -81 -32 -21 -41 50
-8 70 -4 139 27 30 13 45 25 41 34 -3 8 -9 11 -14 8 -5 -3 -9 -1 -9 4 0 14 92
50 129 50 34 1 49 7 39 18 -4 3 -17 1 -30 -6 -22 -11 -22 -10 -4 4 12 9 28 13
39 10 12 -4 17 -2 13 4 -3 5 22 23 57 40 36 18 54 31 42 31 -11 1 -97 -38
-192 -85z"/>
<path d="M11873 4248 c-13 -6 -23 -15 -23 -20 0 -5 14 -2 30 7 45 23 38 35 -7
13z"/>
<path d="M11558 4043 c7 -3 16 -2 19 1 4 3 -2 6 -13 5 -11 0 -14 -3 -6 -6z"/>
<path d="M9936 3991 c-11 -13 -14 -21 -7 -26 6 -3 14 1 17 10 4 9 16 21 28 25
l21 9 -21 0 c-11 1 -29 -8 -38 -18z"/>
<path d="M12117 3839 l-58 -30 20 -33 c21 -34 29 -82 11 -71 -5 3 -3 -16 5
-42 8 -26 15 -51 15 -54 0 -11 34 -16 55 -9 11 4 25 4 30 0 11 -9 85 11 85 22
0 5 5 8 10 8 6 0 17 6 24 13 17 15 2 49 -48 112 -17 22 -43 57 -56 77 -14 21
-27 38 -30 37 -3 0 -31 -13 -63 -30z"/>
<path d="M12490 3250 c-89 -53 -95 -59 -101 -96 -8 -47 -5 -52 18 -31 10 8 44
29 77 46 94 50 182 128 114 102 -13 -5 -22 -13 -21 -18 1 -4 -9 -13 -23 -20
-14 -6 -24 -7 -24 -1 0 5 -6 6 -12 3 -18 -9 35 38 58 51 10 7 17 14 14 16 -3
3 -48 -21 -100 -52z"/>
<path d="M12633 3285 c0 -8 4 -15 9 -15 4 0 8 4 8 9 0 6 -4 12 -8 15 -5 3 -9
-1 -9 -9z"/>
<path d="M10580 3460 c0 -5 7 -10 16 -10 8 0 12 5 9 10 -3 6 -10 10 -16 10 -5
0 -9 -4 -9 -10z"/>
<path d="M10633 3443 c9 -2 25 -2 35 0 9 3 1 5 -18 5 -19 0 -27 -2 -17 -5z"/>
<path d="M10399 2908 c3 -69 10 -78 59 -78 l32 0 0 59 c0 33 -4 62 -8 65 -5 3
-26 8 -48 12 l-39 6 4 -64z"/>
<path d="M10740 4740 c8 -5 24 -10 34 -10 26 0 18 6 -19 14 -22 5 -26 4 -15
-4z"/>
<path d="M10635 4659 c-4 -6 -12 -8 -19 -6 -19 7 -58 -12 -50 -24 4 -7 3 -9
-4 -5 -6 3 -13 2 -17 -4 -4 -6 -12 -7 -18 -3 -7 4 -6 0 2 -10 14 -18 47 -24
36 -7 -3 6 1 7 10 4 15 -6 85 18 113 40 11 8 10 11 -5 17 -27 11 -41 10 -48
-2z"/>
<path d="M11865 4600 c113 -28 502 -101 530 -99 6 0 -12 7 -40 16 -27 8 -53
20 -56 25 -4 6 -20 11 -37 12 -17 0 -29 3 -27 6 2 3 -20 7 -48 8 -75 3 -176
16 -252 33 -22 5 -53 8 -70 8 l-30 -1 30 -8z"/>
<path d="M10350 4539 c0 -5 5 -7 10 -4 6 3 10 8 10 11 0 2 -4 4 -10 4 -5 0
-10 -5 -10 -11z"/>
<path d="M13025 4450 c-19 -7 -18 -9 8 -19 16 -6 42 -11 59 -11 17 0 46 -9 64
-21 19 -11 34 -19 34 -16 0 9 -80 57 -95 57 -8 0 -15 5 -15 10 0 12 -27 12
-55 0z"/>
<path d="M9503 4244 l-28 -26 38 22 c21 12 44 19 52 16 8 -3 17 -1 20 4 14 22
-55 9 -82 -16z"/>
<path d="M9276 4081 c-16 -18 -17 -40 -14 -223 2 -145 7 -210 16 -226 20 -35
24 -21 10 39 -17 79 -17 381 1 403 20 24 8 30 -13 7z"/>
<path d="M13315 3859 c-4 -12 -2 -26 4 -32 8 -8 11 -2 11 21 0 37 -6 41 -15
11z"/>
<path d="M13345 2151 c-7 -12 12 -24 25 -16 11 7 4 25 -10 25 -5 0 -11 -4 -15
-9z"/>
<path d="M9251 2014 c0 -11 3 -14 6 -6 3 7 2 16 -1 19 -3 4 -6 -2 -5 -13z"/>
<path d="M13160 1420 c44 -15 49 -19 26 -19 -23 -1 -26 -4 -17 -15 9 -11 4
-13 -31 -10 -24 2 -80 11 -125 20 -45 9 -87 14 -94 12 -19 -6 219 -66 611
-154 115 -26 161 -42 130 -45 -20 -2 -11 -4 -161 30 -387 88 -543 119 -520
103 10 -7 2 -14 -33 -27 -25 -10 -43 -21 -40 -26 4 -7 -23 -24 -56 -34 -3 -1
-17 -7 -32 -15 -32 -15 -37 -31 -9 -25 12 2 18 -2 17 -10 -3 -19 -15 -30 -34
-31 -48 -3 -51 -4 -47 -24 4 -22 -28 -42 -52 -33 -7 3 -13 -1 -14 -8 -1 -8 -2
-22 -3 -33 0 -11 -16 -24 -41 -34 -22 -9 -42 -20 -44 -26 -8 -20 -53 -55 -66
-50 -7 3 -15 -2 -19 -11 -4 -10 -2 -14 6 -9 7 4 8 3 4 -4 -4 -6 -23 -14 -44
-18 -20 -4 -44 -12 -52 -19 -8 -7 -24 -15 -35 -18 -16 -4 -16 -5 5 -6 14 0 49
6 79 14 30 8 50 10 45 6 -5 -4 -38 -16 -74 -26 -36 -9 -171 -48 -300 -85 -213
-62 -374 -106 -455 -124 -21 -5 -26 -4 -15 3 25 17 4 23 -69 22 -39 0 -71 3
-71 8 0 6 -9 8 -20 6 -11 -2 -22 0 -25 6 -4 5 -18 9 -33 9 -23 -1 -25 -2 -9
-11 27 -16 22 -67 -8 -81 -38 -17 -60 8 -51 56 4 20 10 35 14 33 4 -1 7 3 7 8
0 6 -8 9 -17 8 -10 -2 -18 2 -18 7 0 6 -11 10 -24 10 -14 0 -27 4 -31 9 -3 6
-14 8 -25 6 -11 -2 -20 0 -20 4 0 13 -57 34 -71 26 -6 -4 -14 -3 -18 3 -4 6
-47 13 -96 15 -50 2 -98 7 -107 12 -10 4 -25 5 -33 2 -8 -4 -17 -1 -21 4 -3 6
-15 9 -25 6 -11 -3 -19 0 -19 6 0 7 -5 5 -10 -3 -8 -12 -10 -12 -10 -1 0 8 -3
11 -7 8 -3 -4 -12 -2 -20 5 -10 8 -17 8 -24 1 -12 -12 -92 14 -84 27 8 13 -72
17 -152 8 -55 -7 -93 -1 -93 13 0 5 7 9 15 9 8 0 15 -6 15 -12 0 -9 3 -8 9 2
6 8 7 18 5 22 -3 4 0 8 6 8 22 0 0 18 -30 24 -18 3 -29 10 -25 16 3 5 3 10 -2
11 -4 0 -20 3 -35 5 -18 3 -33 -2 -45 -14 -23 -24 -83 -35 -83 -15 0 8 -4 11
-10 8 -5 -3 -10 1 -10 9 0 9 7 16 16 16 8 0 13 4 9 10 -3 5 -13 7 -23 4 -14
-5 -15 -4 -2 5 8 6 23 11 33 11 29 0 14 23 -15 24 -15 1 -24 -2 -22 -6 3 -4 0
-8 -5 -8 -6 0 -11 4 -11 10 0 10 -23 8 -52 -5 -10 -4 -16 -11 -13 -16 3 -4 -9
-6 -27 -3 -18 3 -39 6 -45 6 -15 2 -17 14 -4 22 5 3 7 15 4 25 -4 15 2 21 26
26 17 4 29 11 26 15 -3 5 -16 5 -30 0 -23 -9 -75 6 -75 23 0 4 -7 7 -15 7 -8
0 -15 4 -15 9 0 4 -11 6 -25 3 -18 -3 -25 0 -25 12 0 9 -5 16 -11 16 -5 0 -7
5 -4 10 3 5 0 10 -7 11 -30 1 -115 10 -138 14 -84 16 -100 17 -100 6 0 -7 -17
-11 -43 -10 -24 1 -49 -1 -56 -5 -8 -5 -12 -3 -10 5 1 8 1 23 0 34 -1 16 -3
17 -11 5 -8 -12 -10 -12 -15 2 -9 22 -64 40 -123 39 -26 0 -135 -21 -242 -46
-183 -42 -229 -51 -219 -41 4 4 283 79 373 100 50 12 21 17 -33 5 -53 -11 -77
-6 -51 12 13 8 13 10 0 19 -24 15 -87 10 -195 -17 -55 -13 -114 -26 -131 -28
-33 -5 -166 -33 -299 -64 l-80 -18 45 -13 c25 -7 64 -19 87 -26 90 -29 222
-64 298 -79 44 -9 149 -37 232 -61 84 -24 235 -65 335 -90 101 -25 273 -71
383 -101 110 -30 265 -72 345 -93 80 -22 352 -96 604 -165 253 -69 474 -125
491 -125 36 0 235 56 810 225 387 114 585 171 1125 324 140 40 365 106 499
146 l245 72 -55 16 c-72 21 -842 184 -899 190 l-45 5 55 -18z m-3590 -160 c0
-5 -7 -10 -15 -10 -8 0 -15 5 -15 10 0 6 7 10 15 10 8 0 15 -4 15 -10z m43
-60 c22 -26 21 -30 -2 -30 -10 0 -24 -7 -31 -15 -20 -24 -29 -17 -20 15 16 56
26 61 53 30z m-283 -60 c0 -5 -4 -10 -10 -10 -5 0 -10 5 -10 10 0 6 5 10 10
10 6 0 10 -4 10 -10z m367 -126 c-3 -3 -12 -4 -19 -1 -8 3 -5 6 6 6 11 1 17
-2 13 -5z m486 -124 c532 -138 747 -197 755 -204 8 -9 -22 -7 -54 3 -16 5 -83
21 -149 36 -100 23 -256 64 -525 140 -25 7 -85 24 -135 38 -49 14 -151 42
-225 62 -124 34 -156 45 -136 45 4 0 216 -54 469 -120z m-36 86 c-4 -9 -11
-16 -17 -16 -11 0 -14 33 -3 44 11 10 26 -11 20 -28z m57 9 c-4 -8 -10 -12
-15 -9 -14 8 -10 24 6 24 9 0 12 -6 9 -15z m2425 -99 c-7 -7 -239 -82 -294
-96 -91 -22 -145 -41 -145 -52 0 -6 -7 -8 -15 -4 -8 3 -18 0 -22 -7 -18 -28
-203 -78 -307 -82 -39 -2 -86 -6 -105 -10 -63 -12 -29 2 104 43 112 35 243 71
675 187 83 23 118 29 109 21z m-1556 -233 c56 -15 95 -29 89 -31 -14 -4 -179
35 -202 48 -28 17 9 11 113 -17z m192 -54 c13 -6 6 -7 -20 -3 -22 4 -47 11
-55 16 -18 11 44 0 75 -13z m70 -19 c13 -5 14 -9 5 -9 -8 0 -24 4 -35 9 -13 5
-14 9 -5 9 8 0 24 -4 35 -9z"/>
<path d="M14925 4108 c-63 -33 -157 -110 -144 -119 8 -5 7 -8 -2 -13 -8 -3 9
-3 36 0 28 3 57 12 67 21 24 21 101 133 91 133 -4 -1 -26 -10 -48 -22z"/>
<path d="M4550 3735 l0 -95 74 0 c66 0 78 3 105 26 26 21 31 33 31 67 -1 73
-35 97 -139 97 l-71 0 0 -95z"/>
<path d="M6449 4153 c-13 -16 -12 -17 4 -4 9 7 17 15 17 17 0 8 -8 3 -21 -13z"/>
<path d="M6310 3746 c0 -2 8 -10 18 -17 15 -13 16 -12 3 4 -13 16 -21 21 -21
13z"/>
<path d="M6360 3680 c11 -16 26 -33 32 -36 7 -4 -1 9 -16 29 -34 44 -46 50
-16 7z"/>
<path d="M6573 3513 c9 -2 23 -2 30 0 6 3 -1 5 -18 5 -16 0 -22 -2 -12 -5z"/>
<path d="M6953 3783 c37 -2 96 -2 130 0 34 2 4 3 -68 3 -71 0 -99 -1 -62 -3z"/>
<path d="M6958 3513 c6 -2 18 -2 25 0 6 3 1 5 -13 5 -14 0 -19 -2 -12 -5z"/>
<path d="M7013 3513 c9 -2 25 -2 35 0 9 3 1 5 -18 5 -19 0 -27 -2 -17 -5z"/>
<path d="M2782 3902 l-41 -122 80 0 c43 0 79 4 79 8 0 4 -17 59 -38 122 l-39
115 -41 -123z"/>
<path d="M16100 3310 l0 -120 83 0 c61 0 91 5 117 19 67 36 78 135 20 193 -27
27 -32 28 -124 28 l-96 0 0 -120z"/>
<path d="M6962 2944 c-43 -30 -21 -124 30 -124 47 0 68 90 28 122 -27 22 -30
22 -58 2z"/>
<path d="M1227 2923 c-4 -3 -7 -26 -7 -50 l0 -43 48 0 c26 0 53 5 60 12 17 17
15 54 -4 72 -15 16 -84 22 -97 9z"/>
<path d="M3140 2880 l0 -50 43 0 c50 0 67 13 67 52 0 33 -24 48 -74 48 l-36 0
0 -50z"/>
<path d="M1457 2952 c-29 -32 -21 -42 33 -42 54 0 65 14 34 44 -21 21 -47 20
-67 -2z"/>
<path d="M2120 2871 c-7 -15 -6 -23 6 -35 18 -19 16 -19 48 -6 19 7 26 17 26
35 0 22 -4 25 -35 25 -24 0 -37 -6 -45 -19z"/>
<path d="M3366 2885 c-3 -9 -6 -26 -6 -36 0 -17 6 -20 43 -17 39 3 42 5 42 33
0 27 -3 30 -36 33 -26 2 -38 -1 -43 -13z"/>
<path d="M4020 2944 c-16 -40 -12 -82 10 -104 40 -40 80 -10 80 61 0 52 -13
69 -52 69 -21 0 -31 -6 -38 -26z"/>
<path d="M4226 2948 c-45 -64 20 -162 74 -113 25 23 27 96 4 119 -22 23 -60
20 -78 -6z"/>
<path d="M4436 2948 c-21 -29 -12 -38 35 -38 43 0 60 19 39 45 -18 22 -57 18
-74 -7z"/>
<path d="M4726 2948 c-33 -46 -7 -128 39 -128 28 0 55 38 55 78 0 65 -61 97
-94 50z"/>
<path d="M5312 2958 c-7 -7 -12 -36 -12 -65 0 -52 14 -73 49 -73 23 0 51 41
51 73 0 60 -53 100 -88 65z"/>
<path d="M5510 2866 c0 -41 10 -50 49 -41 58 13 46 75 -14 75 -33 0 -35 -2
-35 -34z"/>
<path d="M6185 2950 c-25 -27 -9 -42 40 -38 43 3 54 18 30 42 -22 22 -48 20
-70 -4z"/>
<path d="M6657 2883 c-15 -14 -6 -52 13 -58 29 -9 60 12 60 40 0 22 -5 25 -33
25 -19 0 -37 -3 -40 -7z"/>
<path d="M7152 2878 c-18 -18 -15 -36 7 -48 33 -17 71 5 71 43 0 13 -8 17 -33
17 -18 0 -38 -5 -45 -12z"/>
<path d="M7560 2871 c-7 -15 -6 -23 6 -35 8 -9 19 -16 22 -16 18 0 52 33 52
51 0 27 -65 27 -80 0z"/>
<path d="M1489 2544 c-18 -22 -15 -102 4 -122 23 -22 62 -8 77 28 13 30 7 74
-12 97 -15 18 -53 16 -69 -3z"/>
<path d="M1690 2541 c-18 -34 -11 -41 35 -41 37 0 45 3 45 18 0 41 -60 59 -80
23z"/>
<path d="M1907 2508 c-3 -29 -8 -63 -12 -75 -7 -21 -4 -23 34 -23 l41 0 0 75
0 75 -29 0 c-27 0 -29 -3 -34 -52z"/>
<path d="M2380 2541 c-16 -32 -12 -36 35 -37 36 -1 45 2 45 15 0 40 -61 57
-80 22z"/>
<path d="M2752 2453 c2 -30 8 -39 25 -41 12 -2 31 6 43 18 30 30 12 60 -36 60
-35 0 -35 -1 -32 -37z"/>
<path d="M3366 2548 c-3 -7 -7 -33 -9 -58 -3 -25 -8 -53 -12 -63 -7 -16 -3
-18 36 -15 l44 3 0 70 c0 69 0 70 -28 73 -16 2 -29 -2 -31 -10z"/>
<path d="M4000 2530 c0 -30 1 -31 43 -28 37 3 42 6 42 28 0 22 -5 25 -42 28
-42 3 -43 2 -43 -28z"/>
<path d="M4008 2474 c-5 -4 -8 -18 -8 -31 0 -21 5 -23 45 -23 46 0 69 20 48
41 -13 13 -76 23 -85 13z"/>
<path d="M4730 2530 c0 -27 3 -30 34 -30 18 0 39 7 46 15 19 22 -5 45 -46 45
-31 0 -34 -3 -34 -30z"/>
<path d="M4730 2445 c0 -30 3 -35 23 -35 36 0 65 11 71 26 8 21 -22 44 -60 44
-32 0 -34 -2 -34 -35z"/>
<path d="M4940 2541 c-16 -32 -12 -36 35 -38 52 -2 60 5 39 35 -19 27 -60 29
-74 3z"/>
<path d="M5519 2464 c-15 -19 -2 -47 25 -52 22 -5 56 26 56 50 0 14 -8 18 -34
18 -18 0 -39 -7 -47 -16z"/>
<path d="M5726 2538 c-32 -45 -9 -128 34 -128 31 0 50 28 50 75 0 69 -51 101
-84 53z"/>
<path d="M5930 2457 c0 -27 5 -36 22 -40 34 -9 60 10 56 41 -3 23 -8 27 -40
30 -37 3 -38 2 -38 -31z"/>
<path d="M15422 2390 c-70 -29 -47 -180 28 -180 51 0 78 47 67 117 -9 56 -48
81 -95 63z"/>
<path d="M2560 1450 c-32 -32 -24 -127 14 -152 21 -14 63 -8 81 12 25 28 25
113 0 140 -23 26 -70 25 -95 0z"/>
<path d="M2850 1440 c0 -30 2 -31 38 -28 32 3 37 6 37 28 0 22 -5 25 -37 28
-36 3 -38 2 -38 -28z"/>
<path d="M2850 1324 l0 -35 43 3 c36 3 43 7 45 27 4 29 -12 41 -55 41 -31 0
-33 -2 -33 -36z"/>
<path d="M3961 1444 c-37 -47 -21 -139 26 -150 61 -16 101 31 90 102 -12 74
-76 99 -116 48z"/>
</g>
</svg>
